<svg width="348" height="289" viewBox="0 0 348 289" fill="none" xmlns="http://www.w3.org/2000/svg">
<g clip-path="url(#clip0_0_43)">
<path d="M184.266 42.6784C175.112 41.2766 167.285 45.1386 160.619 50.9266C153.785 57.356 149.454 65.9517 151.396 75.6094C152.846 82.1976 159.773 87.1298 165.744 88.2635C176.82 89.6635 187.081 85.0231 194.174 75.6094C198.622 69.4679 201.092 59.981 197.263 52.6899C194.428 47.5131 189.818 43.6431 184.266 42.6784" fill="black"/>
<path d="M275.456 209.679L116.307 226.81L315.414 248.941V223.216L275.456 209.679Z" fill="black"/>
<path d="M55.3353 234.701C49.4418 238.585 45.2822 245.248 46.702 252.627C47.6532 257.976 52.4342 262.356 57.1322 264.458C59.6004 265.708 60.9585 266.407 64.2328 267.634C66.01 268.865 62.2628 268.682 60.9585 269.215L0.104065 278.169V288.097H347.001V261.065L83.9536 231.107C74.9193 229.451 62.6166 229.952 55.3353 234.701" fill="black"/>
<path d="M260.612 57.2647C262.121 54.9891 263.94 54.2603 266.227 54.2603C268.364 54.1749 271.35 55.1598 273.832 56.2084L287.735 62.3579L284.257 47.0826L260.612 35.745V57.2647H260.612Z" fill="black"/>
<path d="M122.724 208.641C126.697 208.11 128.532 203.249 128.54 198.348L128.568 182.563L117.012 178.219L116.974 200.017C116.966 204.853 118.743 209.17 122.724 208.641" fill="black"/>
<path d="M151.158 182.345L151.116 204.965L156.098 204.302C161.554 203.575 164.991 198.004 165.003 191.602C165.015 184.946 161.876 180.653 156.183 181.55L151.158 182.345Z" fill="black"/>
<path d="M223.048 161.17C223.092 161.186 223.131 161.194 223.167 161.206L223.056 161.17H223.048Z" fill="black"/>
<path d="M215.269 171.988C209.173 172.953 205.309 178.445 205.293 185.803C205.278 193.091 209.133 197.531 215.229 196.72C221.345 195.911 225.348 190.327 225.359 182.877C225.371 175.371 221.392 171.019 215.269 171.988" fill="black"/>
<path d="M256.537 118.941L261.517 109.349L246.951 103.872L246.899 103.884L256.537 118.941Z" fill="black"/>
<path d="M324.21 204.325C317.547 205.727 313.194 202.121 311.586 196.942C311.061 195.379 311.744 194.918 313.452 194.584C318.571 193.802 323.857 192.662 328.988 191.578C331.45 191.153 331.299 191.931 331.203 193.178C332.244 197.825 328.916 203.011 324.21 204.325ZM36.2025 207.053C34.6737 210.818 30.9408 213.376 27.0687 213.451C23.0676 213.812 19.5612 212.319 17.6012 207.653C16.2351 204.226 15.8282 199.064 18.1174 199.588C24.3522 200.358 30.001 201.792 36.0433 203.17C37.6775 203.694 36.6608 205.727 36.2025 207.053ZM229.199 57.6061L237.126 55.7692V64.194L244.048 62.4428V70.0794L237.126 71.5964V90.9876L229.199 92.8144V57.6061ZM305.089 0L322.84 185.363C323.11 187.193 322.935 189.675 320.553 190.271C318.678 190.986 317.471 189.675 316.872 188.437L311.614 165.562L276.115 151.433L262.133 153.784C265.739 154.205 268.96 155.622 271.656 158.022L266.548 166.937C263.296 164.153 258.658 164.411 255.282 164.947C252.034 165.463 250.787 167.286 250.783 169.335C250.778 171.814 253.098 172.305 257.323 172.663C263.673 173.346 272.29 173.954 272.271 184.863C272.263 188.937 271.262 192.543 269.356 195.457L241.224 198.96C240.692 198.504 240.188 198.015 239.707 197.499L244.365 188.611C247.05 191.618 251.648 192.65 256.831 191.963C260.23 191.518 262.311 189.453 262.315 187.166C262.32 184.45 259.837 183.719 255.763 183.227C249.516 182.552 241.165 182.186 241.185 171.123C241.188 169.661 241.367 168.207 241.717 166.794L223.406 161.274C230.665 163.514 235.633 170.844 235.613 181.388C235.601 189.021 232.972 195.728 228.763 200.509L201.977 203.845C198.041 200.227 195.643 194.445 195.659 187.201C195.667 180.843 197.541 175.061 200.67 170.518L188.9 166.094L188.792 166.111L188.725 205.493L180.243 206.546L180.294 177.126L163.276 171.987C169.278 174.053 173.186 180.462 173.174 190.414C173.156 197.844 170.96 203.956 167.354 208.153L143.293 211.144L143.354 177.568L136.343 174.935L136.27 174.946L136.234 198.285C136.22 203.618 135.102 208.658 132.763 212.454L112.864 214.932C110.642 211.803 109.606 207.216 109.614 202.145L109.648 182.48L103.994 180.376H103.987L104.954 189.66L97.3528 190.863L97.3053 216.866L90.3954 217.728L90.4412 191.955L83.0527 193.123L83.5272 188.461L74.9079 185.86L74.8902 185.88C76.8557 186.452 78.619 187.603 80.1318 189.319L76.7665 196.443C74.6141 194.1 71.5485 194.195 69.3124 194.553C67.1561 194.894 66.3267 196.347 66.3222 198.02C66.318 200.036 67.8627 200.493 70.6667 200.879C74.8624 201.581 80.547 202.269 80.5311 211.121C80.5269 214.193 79.9573 216.918 78.8632 219.166L59.5965 221.561C59.3724 221.303 59.1539 221.036 58.9496 220.754L62.0533 213.59C63.8384 216.1 66.8921 217.033 70.3333 216.577C72.5767 216.283 73.9591 214.647 73.9591 212.784C73.9629 210.576 72.3207 209.933 69.6243 209.444C65.4803 208.761 59.923 208.284 59.9386 199.25C59.9424 196.196 60.7188 193.21 62.2198 190.803L55.9774 188.444L55.884 180.391L276.116 141.449L309.089 154.578L297.838 105.627L277.053 97.5159L261.295 128.038L261.271 140.002L251.892 141.673L251.908 129.831L240.451 111.764L230.019 108.617L229.979 108.621C231.448 109.01 232.688 109.677 233.665 110.64C234.692 111.657 235.467 112.918 235.991 114.431C236.516 115.94 236.778 118.489 236.773 120.343C236.766 123.658 236.055 127.355 234.649 129.688C233.394 131.759 231.623 133.921 229.327 135.252L235.634 144.572L224.999 146.462L219.249 137.886L219.233 147.493L210.322 149.081L210.377 115.062L204.5 112.854L204.452 137.846C204.444 142.888 203.801 147.218 201.875 150.586L178.802 154.696C176.964 152.075 176.36 148.106 176.367 143.287L176.407 121.43L171.91 119.742L172.571 128.985L163.821 130.77L163.777 157.373L155.855 158.787L155.9 132.388L147.279 134.145L147.759 127.476L143.546 125.895L143.484 160.988L133.605 162.751L120.244 147.51L120.214 165.138L112.651 166.488L112.705 135.753L106.718 133.503L108.118 141.877L92.3152 145.101L92.303 151.565L105.235 148.997L105.217 157.613L92.2905 160.079L92.2787 166.746L108.263 163.788L107.673 167.374L85.0654 171.4L85.1129 143.243L76.6066 140.731C78.7074 141.398 80.4905 142.597 81.799 143.922L78.3224 151.561C76.4599 149.353 73.8172 149.132 71.5235 149.599C67.2983 150.46 64.2068 155.123 64.195 161.004C64.1829 166.881 67.4531 170.129 71.6824 169.343C74.1943 168.874 76.7201 166.976 78.2984 164.804L81.7532 171.091C81.5069 171.436 81.237 171.786 80.965 172.131L61.4785 175.602C58.8119 172.711 57.1558 168.112 57.1637 162.306C57.1759 156.136 58.961 150.616 61.8441 146.63L55.5913 144.274V136.806L278.188 86.5088L295.03 93.5359L288.863 67.0104L273.566 60.5075V82.5476L265.639 84.1343V68.9444C265.556 66.3669 266.775 62.5289 263.749 63.2317C262.498 63.2317 260.358 64.8184 260.183 66.1227V85.6173L251.383 87.5453V52.5289L215.777 37.0711L213.395 36.539C216.551 41.3619 218.509 46.7409 219.617 52.4293C221.758 72.7183 211.512 89.31 195.286 100.646L164.654 108.016C154.472 108.987 144.741 105.201 137.807 97.2026C129.714 87.2886 129.027 72.0016 132.867 59.7128L126.035 56.3989C135.851 81.05 104.437 99.5854 101.294 108.37L127.746 102.643V116.527L62.8452 131.819V122.858L97.444 83.4044C102.555 77.6303 109.062 72.7183 107.072 66.9324C106.324 64.911 104.173 63.9258 102.481 63.3167C97.0944 62.2801 92.6329 64.5554 88.8025 67.8756C85.9052 70.7944 84.6328 74.569 84.45 76.4831L63.3829 81.3061C64.1513 75.8001 65.0907 71.8309 66.9532 67.4569C72.7592 54.8898 85.4747 45.3058 98.4604 43.4887C112.644 41.0945 122.302 50.6868 134.664 54.9894C140.291 44.9641 149.788 34.4285 159.668 28.9742C172.678 20.9106 191.704 21.3591 205.536 27.2227L247.984 45.5736L251.641 46.8998V34.5058L260.1 30.6539L282.989 41.7234L273.49 0.278211H68.4164L32.1178 194.409C31.5166 196.347 29.2309 197.3 27.434 196.86C25.6988 196.164 24.8649 195.008 24.8649 192.562L33.4124 0.278211H0.104065V272.114L17.1863 269.655V225.742C17.3452 222.402 20.7049 221 24.3522 221C28.8656 221 32.1178 222.768 32.1178 225.321V267.463L47.657 265.175C42.1053 259.569 38.7793 251.741 40.6757 243.568C42.7089 234.7 51.6581 227.576 59.9577 226.099L117.059 219.162L271.612 200.723L277.95 200.358C290.221 204.496 301.332 209.404 313.889 213.375C316.26 214.52 315.077 211.525 315.589 210.635C316.208 209.055 317.737 208.721 318.996 208.102C323.11 206.617 328.988 207.228 331.719 211.167L331.815 250.51L347.001 252.885V0L305.089 0Z" fill="black"/>
<path d="M135.672 151.173L135.696 137.196L118.938 130.898L118.793 130.926L135.672 151.173Z" fill="black"/>
<path d="M226.455 126.172C227.174 125.327 227.857 123.91 227.857 122.191C227.865 120.468 227.349 119.707 226.626 119.092C225.657 118.276 224.696 118.357 221.865 118.933L219.28 119.463L219.263 128.648L221.845 128.14C224.728 127.57 225.546 127.247 226.455 126.172" fill="black"/>
<path d="M190.258 147.907C195.159 146.998 195.738 143.316 195.746 138.364L195.774 121.296L184.607 117.096L184.567 140.519C184.559 145.427 185.35 148.818 190.258 147.907Z" fill="black"/>
<path d="M76.1463 140.596L76.1383 140.591C76.1421 140.596 76.1463 140.596 76.1463 140.596Z" fill="black"/>
<path d="M330.143 273.44H332.967L335.103 279.901H335.127L337.168 273.44H339.964V282.839H338.089V276.168H338.07L335.818 282.839H334.293L332.046 276.239H332.025V282.839H330.143V273.44Z" fill="white"/>
<path d="M321.597 273.44H329.071V275.183H326.327V282.839H324.314V275.183H321.597V273.44Z" fill="white"/>
</g>
<defs>
<clipPath id="clip0_0_43">
<rect width="347.105" height="288.097" fill="white"/>
</clipPath>
</defs>
</svg>
