<?xml version="1.0" encoding="UTF-8"?>
<svg width="10px" height="10px" viewBox="0 0 10 10" version="1.1" xmlns="http://www.w3.org/2000/svg" xmlns:xlink="http://www.w3.org/1999/xlink">
    <title>Path</title>
    <g id="Page-1" stroke="none" stroke-width="1" fill="none" fill-rule="evenodd">
        <g id="Careers" transform="translate(-947.000000, -419.000000)" fill="#000000" fill-rule="nonzero">
            <g id="Group-3" transform="translate(855.000000, 413.000000)">
                <g id="arrow-right" transform="translate(92.000000, 6.000000)">
                    <path d="M0.641746328,5.65854331 L7.81004316,5.65854331 L4.67832099,8.87224577 C4.4280402,9.12907825 4.4280402,9.55054316 4.67832099,9.80737564 C4.92860177,10.0642081 5.33290149,10.0642081 5.58318228,9.80737564 L9.81228941,5.46757284 C10.0625702,5.21074036 10.0625702,4.79585713 9.81228941,4.53902465 L5.58960707,0.192624358 C5.33932628,-0.0642081194 4.93502656,-0.0642081194 4.68474578,0.192624358 C4.43446499,0.449456836 4.43446499,0.864344585 4.68474578,1.12117706 L7.81004316,4.34146121 L0.641746328,4.34146121 C0.288785518,4.34146121 0,4.63780637 0,5 C0,5.36219814 0.288785518,5.65854331 0.641746328,5.65854331 Z" id="Path"></path>
                </g>
            </g>
        </g>
    </g>
</svg>