<svg width="678" height="240" viewBox="0 0 678 240" fill="none" xmlns="http://www.w3.org/2000/svg">
<path d="M672.632 95.4379C671.11 87.8849 668.768 80.4489 665.782 73.3057C662.854 66.3381 659.166 59.6048 654.95 53.2813C650.734 47.0164 645.875 41.1613 640.546 35.8331C635.218 30.505 629.363 25.6453 623.098 21.4296C616.775 17.1554 610.1 13.5253 603.074 10.5977C595.989 7.61162 588.553 5.26959 580.942 3.74727C573.154 2.16639 565.191 1.34668 557.229 1.34668C549.266 1.34668 541.244 2.16639 533.515 3.74727C525.962 5.26959 518.526 7.61162 511.383 10.5977C504.416 13.5253 497.682 17.214 491.359 21.4296C488.958 23.0105 486.675 24.767 484.391 26.5236C482.108 24.767 479.824 23.069 477.424 21.4296C471.1 17.1554 464.425 13.5253 457.399 10.5977C450.315 7.61162 442.879 5.26959 435.267 3.74727C427.538 2.16639 419.517 1.34668 411.554 1.34668C403.591 1.34668 395.57 2.16639 387.841 3.74727C380.288 5.26959 372.852 7.61162 365.709 10.5977C358.741 13.5253 352.008 17.214 345.684 21.4296C343.167 23.1276 340.707 24.9427 338.307 26.8163C335.906 24.9427 333.447 23.1276 330.988 21.4296C324.665 17.1554 317.99 13.5253 310.964 10.5977C303.879 7.61162 296.443 5.26959 288.831 3.74727C281.103 2.16639 273.081 1.34668 265.118 1.34668C257.155 1.34668 249.134 2.16639 241.405 3.74727C233.852 5.26959 226.416 7.61162 219.273 10.5977C212.305 13.5253 205.572 17.214 199.249 21.4296C196.731 23.1276 194.33 24.8841 191.988 26.7578C189.646 24.8841 187.187 23.1276 184.728 21.4296C178.404 17.1554 171.73 13.5253 164.704 10.5977C157.619 7.61162 150.183 5.26959 142.571 3.74727C134.843 2.16639 126.821 1.34668 118.858 1.34668C110.895 1.34668 102.874 2.16639 95.1452 3.74727C87.5921 5.26959 80.1561 7.61162 73.0129 10.5977C66.0454 13.5253 59.312 17.214 52.9885 21.4296C46.7236 25.6453 40.8685 30.505 35.5404 35.8331C30.4464 41.2198 25.5867 47.0749 21.3711 53.2813C17.0968 59.6048 13.4667 66.3381 10.5392 73.3057C7.55306 80.3903 5.21102 87.8263 3.6887 95.4379C2.10783 103.167 1.28812 111.188 1.28812 119.151C1.28812 127.114 2.10783 135.135 3.6887 142.864C5.21102 150.417 7.55306 157.853 10.5392 164.938C13.4667 171.905 17.1554 178.639 21.3711 184.962C25.5867 191.169 30.4464 197.082 35.7746 202.41C41.1027 207.738 46.9578 212.598 53.2227 216.814C59.5462 221.088 66.221 224.718 73.2471 227.646C80.3318 230.632 87.7677 232.974 95.3794 234.496C103.108 236.077 111.13 236.897 119.092 236.897C127.055 236.897 135.077 236.077 142.806 234.496C150.359 232.974 157.795 230.632 164.938 227.646C171.905 224.718 178.639 221.03 184.962 216.814C187.421 215.116 189.88 213.359 192.222 211.486C194.565 213.359 197.024 215.116 199.483 216.814C205.806 221.088 212.481 224.718 219.507 227.646C226.592 230.632 234.028 232.974 241.581 234.496C249.31 236.077 257.331 236.897 265.294 236.897C273.257 236.897 281.278 236.077 289.007 234.496C296.56 232.974 303.996 230.632 311.139 227.646C318.107 224.718 324.84 221.03 331.164 216.814C333.681 215.116 336.141 213.301 338.541 211.427C340.942 213.301 343.401 215.116 345.918 216.814C352.242 221.088 358.917 224.718 365.943 227.646C373.028 230.632 380.464 232.974 388.075 234.496C395.804 236.077 403.825 236.897 411.788 236.897C419.751 236.897 427.773 236.077 435.501 234.496C443.054 232.974 450.49 230.632 457.634 227.646C464.601 224.718 471.334 221.03 477.658 216.814C480.059 215.233 482.342 213.476 484.626 211.72C486.909 213.476 489.192 215.174 491.593 216.814C497.917 221.088 504.591 224.718 511.617 227.646C518.702 230.632 526.138 232.974 533.691 234.496C541.42 236.077 549.441 236.897 557.404 236.897C565.367 236.897 573.389 236.077 581.117 234.496C588.67 232.974 596.106 230.632 603.25 227.646C610.217 224.718 616.95 221.03 623.274 216.814C629.539 212.598 635.394 207.738 640.722 202.41C646.05 197.082 650.91 191.227 655.126 184.962C659.4 178.639 663.03 171.964 665.958 164.938C668.944 157.853 671.286 150.417 672.808 142.806C674.389 135.018 675.209 127.055 675.209 119.092C675.033 111.188 674.213 103.167 672.632 95.4379ZM67.6848 43.0349C72.6031 39.6975 77.8727 36.8871 83.3179 34.6036C88.8802 32.2615 94.6767 30.4465 100.532 29.2754C106.563 28.0459 112.828 27.4018 119.034 27.4018C125.24 27.4018 131.505 28.0459 137.536 29.2754C143.45 30.505 149.246 32.2615 154.75 34.6036C160.195 36.8871 165.465 39.756 170.324 43.0934C171.378 43.7961 172.432 44.5572 173.486 45.3184C171.378 47.8946 169.388 50.588 167.573 53.3398C163.298 59.6633 159.668 66.3381 156.741 73.3642C153.755 80.4489 151.413 87.8849 149.89 95.4965C148.309 103.225 147.49 111.247 147.49 119.21C147.49 127.172 148.309 135.194 149.89 142.923C151.413 150.476 153.755 157.912 156.741 164.996C159.668 171.964 163.357 178.697 167.573 185.021C169.446 187.773 171.437 190.466 173.545 193.042C172.491 193.803 171.437 194.565 170.324 195.326C165.406 198.663 160.195 201.474 154.75 203.816C149.188 206.158 143.391 207.973 137.536 209.144C131.505 210.373 125.24 211.017 119.034 211.017C112.828 211.017 106.563 210.373 100.532 209.144C94.6182 207.914 88.8217 206.158 83.3179 203.816C77.8727 201.532 72.6616 198.663 67.7433 195.326C62.8836 192.047 58.3167 188.241 54.1595 184.142C50.0024 179.985 46.2552 175.418 42.9763 170.559C39.6389 165.64 36.8285 160.429 34.4865 154.984C32.1444 149.422 30.3293 143.625 29.1583 137.77C27.9288 131.739 27.2847 125.475 27.2847 119.268C27.2847 113.062 27.9288 106.797 29.1583 100.766C30.3879 94.8524 32.1444 89.0559 34.4865 83.5521C36.7699 78.1069 39.6389 72.8373 42.9763 67.9776C46.2552 63.1178 50.061 58.5509 54.1595 54.3938C58.2581 50.1195 62.8251 46.3137 67.6848 43.0349ZM189.119 170.5C185.782 165.582 182.971 160.371 180.629 154.926C178.287 149.363 176.472 143.567 175.301 137.712C174.072 131.681 173.428 125.416 173.428 119.21C173.428 113.003 174.072 106.738 175.301 100.707C176.531 94.7939 178.287 88.9973 180.629 83.4935C182.913 78.0483 185.782 72.7787 189.119 67.919C190.056 66.5138 191.11 65.1086 192.164 63.7034C193.218 65.1086 194.213 66.5138 195.209 67.919C198.546 72.8373 201.356 78.0483 203.698 83.4935C206.04 89.0559 207.856 94.8524 209.027 100.707C210.256 106.738 210.9 113.003 210.9 119.21C210.9 125.416 210.256 131.681 209.027 137.712C207.797 143.625 206.04 149.422 203.698 154.926C201.415 160.371 198.546 165.64 195.209 170.5C194.272 171.905 193.218 173.311 192.164 174.716C191.11 173.369 190.056 171.964 189.119 170.5ZM216.697 185.021C220.971 178.697 224.601 172.022 227.529 164.996C230.515 157.912 232.857 150.476 234.379 142.864C235.96 135.077 236.78 127.114 236.78 119.151C236.78 111.188 235.96 103.167 234.379 95.4379C232.857 87.8849 230.515 80.4489 227.529 73.3057C224.601 66.3381 220.912 59.6048 216.697 53.2813C214.823 50.5294 212.832 47.8361 210.725 45.2598C211.778 44.4987 212.832 43.7375 213.886 43.0349C218.805 39.6975 224.016 36.8871 229.461 34.545C235.023 32.203 240.82 30.3879 246.675 29.2169C252.706 27.9873 258.97 27.3433 265.177 27.3433C271.383 27.3433 277.648 27.9873 283.679 29.2169C289.593 30.4465 295.389 32.203 300.893 34.545C306.338 36.8285 311.608 39.6975 316.467 43.0349C317.58 43.7961 318.692 44.5572 319.746 45.3769C317.697 47.9532 315.706 50.588 313.891 53.2813C309.617 59.6048 305.987 66.2796 303.059 73.3057C300.073 80.3903 297.731 87.8263 296.209 95.4379C294.628 103.167 293.808 111.188 293.808 119.151C293.808 127.114 294.628 135.135 296.209 142.864C297.731 150.417 300.073 157.853 303.059 164.938C305.987 171.905 309.675 178.639 313.891 184.962C315.765 187.714 317.697 190.349 319.805 192.925C318.692 193.745 317.638 194.506 316.467 195.267C311.549 198.605 306.338 201.415 300.893 203.757C295.331 206.099 289.534 207.914 283.679 209.085C277.648 210.315 271.383 210.959 265.177 210.959C258.97 210.959 252.706 210.315 246.675 209.085C240.761 207.856 234.965 206.099 229.461 203.757C224.016 201.474 218.805 198.605 213.886 195.267C212.832 194.565 211.72 193.803 210.725 192.984C212.832 190.466 214.823 187.773 216.697 185.021ZM335.496 170.5C332.159 165.582 329.349 160.371 327.007 154.926C324.665 149.363 322.849 143.567 321.678 137.712C320.449 131.681 319.805 125.416 319.805 119.21C319.805 113.003 320.449 106.738 321.678 100.707C322.908 94.7939 324.665 88.9973 327.007 83.4935C329.29 78.0483 332.159 72.7787 335.496 67.919C336.433 66.5138 337.429 65.1671 338.424 63.8205C339.419 65.1671 340.415 66.5138 341.352 67.919C344.689 72.8373 347.499 78.0483 349.841 83.4935C352.183 89.0559 353.999 94.8524 355.17 100.707C356.399 106.738 357.043 113.003 357.043 119.21C357.043 125.416 356.399 131.681 355.17 137.712C353.94 143.625 352.183 149.422 349.841 154.926C347.558 160.371 344.689 165.64 341.352 170.5C340.415 171.905 339.419 173.252 338.424 174.599C337.429 173.252 336.433 171.905 335.496 170.5ZM362.898 185.021C367.172 178.697 370.803 172.022 373.73 164.996C376.716 157.912 379.058 150.476 380.581 142.864C382.161 135.077 382.981 127.114 382.981 119.151C382.981 111.188 382.161 103.167 380.581 95.4379C379.058 87.8849 376.716 80.4489 373.73 73.3057C370.803 66.3381 367.114 59.6048 362.898 53.2813C361.083 50.5294 359.092 47.8946 357.043 45.3184C358.097 44.4987 359.21 43.7375 360.322 42.9763C365.24 39.6389 370.451 36.8285 375.897 34.4865C381.459 32.1444 387.255 30.3294 393.111 29.1583C399.141 27.9288 405.406 27.2847 411.613 27.2847C417.819 27.2847 424.084 27.9288 430.115 29.1583C436.028 30.3879 441.825 32.1444 447.329 34.4865C452.774 36.77 458.043 39.6389 462.903 42.9763C463.84 43.6204 464.777 44.2645 465.655 44.9085C463.489 47.6019 461.439 50.3538 459.507 53.2227C455.233 59.5462 451.603 66.221 448.675 73.2471C445.689 80.3318 443.347 87.7678 441.825 95.3794C440.244 103.108 439.424 111.13 439.424 119.092C439.424 127.055 440.244 135.077 441.825 142.806C443.347 150.359 445.689 157.795 448.675 164.879C451.603 171.847 455.292 178.58 459.507 184.904C461.439 187.773 463.489 190.525 465.714 193.218C464.777 193.92 463.84 194.565 462.903 195.209C457.985 198.546 452.774 201.356 447.329 203.698C441.766 206.041 435.97 207.856 430.115 209.027C424.084 210.256 417.819 210.9 411.613 210.9C405.406 210.9 399.141 210.256 393.111 209.027C387.197 207.797 381.4 206.041 375.897 203.698C370.451 201.415 365.24 198.546 360.322 195.209C359.21 194.447 358.097 193.686 357.043 192.867C359.092 190.407 361.025 187.714 362.898 185.021ZM481.112 170.5C477.775 165.582 474.965 160.371 472.623 154.926C470.281 149.363 468.465 143.567 467.294 137.712C466.065 131.681 465.421 125.416 465.421 119.21C465.421 113.003 466.065 106.738 467.294 100.707C468.524 94.7939 470.281 88.9973 472.623 83.4935C474.906 78.0483 477.775 72.7787 481.112 67.919C482.166 66.3381 483.279 64.8158 484.45 63.2935C485.621 64.8158 486.733 66.3381 487.787 67.919C491.125 72.8373 493.935 78.0483 496.277 83.4935C498.619 89.0559 500.434 94.8524 501.605 100.707C502.835 106.738 503.479 113.003 503.479 119.21C503.479 125.416 502.835 131.681 501.605 137.712C500.376 143.625 498.619 149.422 496.277 154.926C493.994 160.371 491.125 165.64 487.787 170.5C486.733 172.081 485.621 173.603 484.45 175.126C483.279 173.603 482.166 172.081 481.112 170.5ZM509.275 185.021C513.55 178.697 517.18 172.022 520.107 164.996C523.093 157.912 525.435 150.476 526.958 142.864C528.539 135.077 529.358 127.114 529.358 119.151C529.358 111.188 528.539 103.167 526.958 95.4379C525.435 87.8849 523.093 80.4489 520.107 73.3057C517.18 66.3381 513.491 59.6048 509.275 53.2813C507.343 50.4123 505.294 47.6604 503.128 44.9671C504.064 44.323 505.001 43.6204 505.938 42.9763C510.856 39.6389 516.067 36.8285 521.513 34.4865C527.075 32.1444 532.871 30.3294 538.726 29.1583C544.757 27.9288 551.022 27.2847 557.229 27.2847C563.435 27.2847 569.7 27.9288 575.731 29.1583C581.644 30.3879 587.441 32.1444 592.945 34.4865C598.39 36.77 603.659 39.6389 608.519 42.9763C613.379 46.2552 617.946 50.061 622.103 54.2181C626.26 58.3752 630.007 62.9422 633.286 67.8019C636.624 72.7202 639.434 77.9312 641.776 83.3764C644.118 88.9388 645.933 94.7353 647.104 100.59C648.334 106.621 648.978 112.886 648.978 119.092C648.978 125.299 648.334 131.564 647.104 137.595C645.875 143.508 644.118 149.305 641.776 154.808C639.493 160.254 636.624 165.523 633.286 170.383C630.007 175.243 626.202 179.81 622.103 183.967C618.004 188.124 613.379 191.871 608.519 195.15C603.601 198.487 598.39 201.298 592.945 203.64C587.382 205.982 581.586 207.797 575.731 208.968C569.7 210.198 563.435 210.842 557.229 210.842C551.022 210.842 544.757 210.198 538.726 208.968C532.813 207.738 527.016 205.982 521.513 203.64C516.067 201.356 510.856 198.487 505.938 195.15C505.001 194.506 504.064 193.862 503.128 193.159C505.294 190.642 507.343 187.89 509.275 185.021Z" fill="black"/>
</svg>
