<svg width="550" height="550" viewBox="0 0 550 550" fill="none" xmlns="http://www.w3.org/2000/svg">
<path fill-rule="evenodd" clip-rule="evenodd" d="M251.277 1.00005C172.269 7.95405 100.613 48.273 53.1115 112.503C36.0765 135.539 19.8385 167.841 11.9705 194.347C-8.54347 263.453 -2.59347 334.198 29.0675 397.613C64.7515 469.085 130.188 521.762 207.53 541.277C262.443 555.133 320.45 551.606 373.684 531.174C440.184 505.65 495.446 453.477 524.971 388.347C555.397 321.226 557.623 245.068 531.173 176.146C503.563 104.202 445.405 46.0441 373.461 18.434C334.54 3.49805 291.952 -2.57895 251.277 1.00005ZM312.26 20.72C361.334 28.142 404.925 48.1871 442.917 80.8011C489.725 120.984 520.491 177.757 529.38 240.347C531.932 258.319 531.932 291.375 529.38 309.347C519.06 382.014 479.56 445.939 419.76 486.748C317.27 556.688 180.898 543.992 93.2565 456.35C53.2725 416.366 28.3505 366.294 20.0915 309.347C17.6835 292.748 17.6835 256.946 20.0915 240.347C28.3505 183.4 53.2725 133.328 93.2565 93.3441C136.059 50.5421 189.875 25.251 251.76 18.854C265.099 17.475 297.39 18.471 312.26 20.72ZM247.26 34.493C245.06 34.688 241.414 35.0901 239.158 35.3861L235.056 35.925L234.394 54.6361C234.03 64.9271 233.452 79.8871 233.108 87.8811L232.483 102.415L240.486 101.467L248.489 100.519L249.118 92.4331C249.465 87.9861 249.804 79.1721 249.872 72.8471C250.088 52.9171 250.185 52.9091 258.769 72.1001L266.26 88.8461L273.307 88.8471H280.354L287.786 72.0971C295.211 55.3621 295.218 55.351 295.931 59.347C296.324 61.547 296.673 67.3971 296.708 72.3471C296.742 77.2971 297.056 85.6611 297.405 90.9341L298.04 100.521L306.034 101.467L314.028 102.414L313.409 88.3811C313.068 80.6621 312.493 65.7021 312.13 55.1371L311.472 35.926L307.366 35.382C305.108 35.083 299.972 34.728 295.953 34.593L288.645 34.347L281.028 53.0891C276.838 63.397 273.304 71.7221 273.173 71.5891C273.043 71.4561 269.557 63.022 265.426 52.847L257.917 34.347L254.588 34.243C252.758 34.185 249.46 34.298 247.26 34.493ZM408.98 78.5851C407.348 80.9181 378.497 126.074 376.457 129.49C376.051 130.17 378.666 132.998 382.922 136.48L390.07 142.327L406.915 133.588C416.18 128.781 423.76 124.964 423.76 125.105C423.76 125.247 419.935 132.728 415.26 141.73C410.585 150.732 406.76 158.299 406.76 158.544C406.76 159.858 418.357 172.831 419.228 172.493C420.16 172.132 472.792 139.041 473.6 138.309C473.786 138.14 471.761 135.254 469.1 131.897C466.09 128.101 463.672 125.937 462.704 126.175C461.848 126.386 453.636 131.58 444.454 137.717C435.272 143.855 427.76 148.648 427.76 148.37C427.76 148.091 431.238 140.891 435.489 132.368L443.217 116.873L437.84 111.428L432.463 105.984L416.612 113.921C407.893 118.287 400.76 121.629 400.76 121.348C400.76 121.067 406.008 112.963 412.422 103.337C418.836 93.7121 423.898 85.7051 423.672 85.5441C423.445 85.3821 421.01 83.4361 418.26 81.2191C411.186 75.5141 411.139 75.5011 408.98 78.5851ZM120.44 88.812C115.514 90.383 107.011 97.7841 95.8105 110.249C85.0005 122.28 75.7595 133.302 75.7595 134.163C75.7595 134.411 86.3265 144.583 99.2425 156.768L122.726 178.921L129.493 171.655C133.215 167.659 141.939 158.454 148.88 151.199C166.711 132.562 169.96 124.983 164.274 115.281C160.875 109.48 154.496 106.363 147.677 107.17L142.76 107.753V103.448C142.76 98.7051 140.072 93.8731 135.584 90.5491C132.572 88.3181 124.79 87.426 120.44 88.812ZM129.931 103.502C132.809 106.106 132.183 110.149 128.149 115.002C126.164 117.392 120.022 124 114.502 129.686L104.465 140.025L100.015 135.575L95.5645 131.125L101.535 124.236C104.819 120.447 111.111 113.86 115.518 109.597C123.896 101.493 126.497 100.394 129.931 103.502ZM257.76 112.838C237.45 115.195 221.314 120.016 202.26 129.421C185.563 137.663 172.945 146.708 159.783 159.87C146.638 173.015 137.593 185.627 129.317 202.347C122.051 217.027 118.567 226.722 115.74 240.122C101.631 307.012 129.408 374.479 186.26 411.411C222.579 435.004 266.31 442.974 309.485 433.867C322.885 431.04 332.58 427.556 347.26 420.29C363.98 412.014 376.592 402.969 389.737 389.824C414.529 365.031 429.556 335.404 435.881 298.847C437.554 289.177 437.554 260.517 435.881 250.847C429.549 214.25 414.585 184.771 389.71 159.897C365.313 135.5 336.219 120.479 301.278 114.24C291.235 112.447 267.672 111.688 257.76 112.838ZM151.342 121.333C152.86 123.648 152.844 124.055 151.116 127.295C150.095 129.208 143.458 136.894 136.366 144.376L123.472 157.981L119.116 153.706C116.72 151.354 114.76 149.076 114.76 148.643C114.76 148.209 121.12 141.328 128.892 133.351C141.524 120.387 143.38 118.847 146.369 118.847C148.828 118.847 150.145 119.505 151.342 121.333ZM304.26 123.959C373.145 137.742 423.35 194.848 428.341 265.097L429.034 274.847H351.897H274.76V351.984V429.121L265.01 428.428C233.736 426.206 202.934 414.334 179.23 395.365C145.133 368.079 124.284 328.296 121.179 284.597L120.486 274.847H197.623H274.76V197.71V120.573L284.51 121.266C289.873 121.647 298.76 122.859 304.26 123.959Z" fill="black"/>
</svg>
