<?xml version="1.0" encoding="UTF-8"?>
<svg width="138px" height="44px" viewBox="0 0 138 44" version="1.1" xmlns="http://www.w3.org/2000/svg" xmlns:xlink="http://www.w3.org/1999/xlink">
    <title>cocacola</title>
    <defs>
        <polygon id="path-1" points="0 0 9.17817858 0 9.17817858 4.94622925 0 4.94622925"></polygon>
        <polygon id="path-3" points="0 0 58.6721193 0 58.6721193 44 0 44"></polygon>
    </defs>
    <g id="Page-1" stroke="none" stroke-width="1" fill="none" fill-rule="evenodd">
        <g id="Home" transform="translate(-1247.000000, -1721.000000)">
            <g id="Group" transform="translate(90.000000, 1580.000000)">
                <g id="cocacola" transform="translate(1157.000000, 141.000000)">
                    <g id="Clipped" transform="translate(128.821821, 37.814720)">
                        <mask id="mask-2" fill="white">
                            <use xlink:href="#path-1"></use>
                        </mask>
                        <g id="Path"></g>
                        <path d="M3.11112476,0.0143351297 L4.49377716,0.0143351297 L4.49377716,4.86987933 L3.5989722,4.86987933 L3.5989722,1.58807864 L3.60555624,0.788741592 L2.7336387,4.86987933 L1.80026995,4.86987933 L0.934936448,0.788741592 L0.942147501,1.58807864 L0.942147501,4.86987933 L0.0464019411,4.86987933 L0.0464019411,0.0143351297 L1.44379011,0.0143351297 L2.28184685,3.82497596 L3.11112476,0.0143351297 Z M6.3495413,0.850133152 L6.3495413,2.15306814 L7.43873285,2.15306814 C7.65537969,2.15306814 7.81747301,2.12876086 7.92595319,2.07983459 C8.11689088,1.99382405 8.21251657,1.80933768 8.21251657,1.53852908 C8.21251657,1.24372488 8.12096679,1.04677321 7.93473193,0.936455303 C7.83032758,0.887217426 7.67544539,0.850133152 7.4675773,0.850133152 L6.3495413,0.850133152 Z M8.4100383,0.137429863 C8.5840456,0.210975106 8.73328428,0.321604623 8.85305141,0.481472018 C9.14902055,1.03461953 9.17817858,1.2066406 9.17817858,1.39112698 C9.17817858,1.62453961 9.12268431,1.85857556 9.01263652,2.07983459 C8.90196156,2.30109355 8.71980261,2.46033772 8.46615959,2.54665987 C8.6787306,2.6451357 8.82796928,2.7679189 8.91638383,2.93993998 C9.00542539,3.09980737 9.05057323,3.34568531 9.05057323,3.68972746 C9.05057323,4.24318658 8.99915486,4.78418041 9.01514474,4.85772565 L8.07675948,4.86987933 L8.08741942,4.19363701 L8.08240299,3.73896542 C8.07832717,3.43169585 8.02314648,3.22290219 7.92030975,3.11196106 C7.81747301,3.01379684 7.62590822,2.96455888 7.34248015,2.96455888 L6.3495413,2.96455888 L6.3495413,4.86987933 L5.4095885,4.86987933 L5.4095885,0.0143351297 L7.66760724,0.0143351297 C7.98928561,0.0143351297 8.23728511,0.0632613945 8.4100383,0.137429863" id="Shape" fill="#000000" mask="url(#mask-2)"></path>
                    </g>
                    <g id="Clipped">
                        <mask id="mask-4" fill="white">
                            <use xlink:href="#path-3"></use>
                        </mask>
                        <g id="Path"></g>
                        <path d="M51.9153069,38.3822029 C46.8847721,35.1614823 40.0577298,34.5961811 29.0476151,37.6327271 C17.3098052,40.3738455 13.3963658,42.1314522 8.25703731,38.603462 C6.28244664,36.8701626 5.57481697,34.0798062 6.10342291,30.0600601 C7.32962558,23.5079891 10.6426614,17.2021078 16.5275563,10.2075189 C19.8126883,6.56889911 22.8592266,3.44634259 26.8833408,2.19264548 C29.9668752,1.40577372 29.6784307,3.81500372 29.3056476,4.15935749 C28.9118581,4.15935749 28.2506305,4.22106066 27.7392685,4.55263752 C27.3244728,4.87206078 26.1854306,5.90512208 26.1246064,7.29406769 C26.0365054,9.4206471 28.2506305,8.97812911 29.2056326,7.81044254 C30.2343134,6.49504225 31.7558582,3.97518273 30.5594406,1.62703267 C30.057798,0.790923038 29.1912104,0.213468165 28.1148734,0.0171398012 C24.4309355,-0.192277163 20.9997001,1.55317582 17.8330812,3.48311517 C10.9072779,8.26542582 5.36694888,14.891042 2.2323096,22.1436625 C0.425142109,26.5199161 -1.20958578,32.7890249 1.24062485,37.8904471 C3.1355798,41.430591 7.07033904,43.3116041 11.7647732,42.918324 C15.0577434,42.5739702 19.0382775,41.5169131 21.7161084,40.8777551 C24.3939394,40.2382854 38.1006966,35.5550739 42.6041931,43.7051958 C42.6041931,43.7051958 44.1015963,40.8163635 47.8438501,40.7546604 C50.9208004,40.4720098 55.3597105,41.6396963 58.59217,44 C57.5158331,42.3894838 54.4627108,40.0170265 51.9153069,38.3822029" id="Path" fill="#000000" mask="url(#mask-4)"></path>
                    </g>
                    <path d="M29.5611718,16.9316109 C29.5533336,16.9559182 28.7340885,18.8247776 28.7340885,18.8247776 C28.6152619,18.9229418 28.4280865,18.8737039 28.2136343,18.8247776 L27.8461811,18.7630744 C26.691149,18.4065669 25.8201721,17.6446258 25.5517933,16.7346592 C25.1815183,14.9645872 26.7027495,13.5756417 27.3733829,13.0717321 C28.0161126,12.6292142 29.015949,12.3954898 29.5969138,12.8504731 C29.9552748,13.2683721 30.0910318,13.8090543 30.0910318,14.3992861 C30.0910318,15.1983116 29.8430322,16.0955011 29.5611718,16.9316109 M27.8013468,20.4839085 C27.8013468,20.4839085 27.7646642,20.5948496 27.7458526,20.6316222 C27.7408362,20.6316222 25.8835044,23.6429259 25.8835044,23.6429259 C24.7626467,25.130659 23.3627503,26.9992068 21.6135852,27.8967081 C21.0943851,28.0687291 20.3779768,28.1793586 20.0127183,27.724687 C19.2383075,26.8025667 19.6374269,25.5242506 19.9616134,24.4918126 L20.0760506,24.1225282 C21.0059707,21.615134 22.4817405,19.4022324 23.9170654,17.3495099 C23.9355635,17.3370446 23.9750678,17.324891 23.9894901,17.324891 C23.9932524,17.3370446 23.9988958,17.3370446 24.001404,17.3619752 C24.9024796,19.0824976 26.5923881,19.8815231 27.8555869,20.2508074 C27.8634251,20.2508074 27.8712632,20.2626494 27.8712632,20.28758 C27.8712632,20.3240411 27.8505705,20.3735906 27.8013468,20.4839085 M51.0383729,18.5047311 C51.8692185,17.3619752 54.2874494,14.3008103 54.8775065,13.7844354 C56.8602489,12.0511361 57.6528442,12.8137005 57.7215065,13.3543827 C55.8707588,16.6486486 53.6867324,20.4228285 51.6331329,23.8152586 C51.6375223,23.803105 50.9907169,24.7863052 50.9907169,24.7863052 C50.0830573,26.1630971 49.1700677,27.3432489 47.6805028,28.167205 C47.4682452,28.2282849 47.1180359,28.2532155 46.8850856,28.0808827 C46.6041658,27.8967081 46.4938044,27.5894385 46.5254707,27.269392 C46.6148257,26.212335 47.6974332,22.979149 51.0383729,18.5047311 M30.4450033,11.0308516 C27.8819232,9.35925546 22.729113,12.5553572 18.602162,18.0379059 C14.8282419,22.9551532 13.1988441,28.6711145 14.9721507,31.3140688 C17.6104772,34.42416 22.5074497,29.9005043 24.5902071,27.4784974 L24.8585859,27.1961585 C26.2747856,25.6841181 27.3693071,23.8644966 28.4280865,22.1190436 C28.4280865,22.1190436 29.4015867,20.5209927 29.4479886,20.4471358 C30.0499598,20.3365064 30.7742063,20.1644853 31.5909432,19.9310726 C31.5793427,19.9675336 28.4666503,25.1674316 28.7839393,27.7489943 C28.8830137,28.535866 28.8077673,31.412233 31.6332693,32.2851153 C35.3990376,32.9121197 38.4060715,30.0108222 41.0588204,27.4295711 C41.0588204,27.4295711 41.5109257,26.9992068 41.7664499,26.7536405 C41.7015499,27.0116721 41.6175248,27.3554026 41.6175248,27.3554026 C40.5148516,31.1663551 42.0006543,31.9656921 42.9305743,32.2604963 C45.7400864,33.0719871 49.0967025,29.0151567 49.1070489,29.0151567 C49.020202,30.2937844 48.7656184,31.3508414 50.120994,32.1991048 C51.4001827,32.6537764 52.6950476,31.9778458 53.6788942,31.3262225 C57.2236263,28.8431356 60.0789133,24.9343306 62.3858422,21.615134 L60.9144617,21.615134 C60.8972178,21.6394413 57.2838234,26.8025667 54.9380172,27.9334807 C54.9342549,27.9334807 54.5075451,28.142586 54.2611132,27.9702533 C53.9569923,27.7122217 54.0767595,27.1344552 54.265189,26.7536405 C54.277103,26.7287099 63.3232869,11.0922432 63.3232869,11.0922432 L59.0518001,11.0922432 C59.0518001,11.0922432 58.5855859,11.8794266 58.5473357,11.9283529 C58.5184913,11.903734 58.4501424,11.7934161 58.4024864,11.7317129 C55.7560081,8.09278144 49.7632601,13.6987365 45.2512984,20.1887926 C43.5140473,22.6843447 41.302744,25.4993201 39.0092967,27.5277353 C39.0092967,27.5277353 35.6125493,30.6253613 34.1606074,28.4006176 C33.6301204,27.4663437 33.7931542,26.1017055 34.0922586,25.2045159 C35.7824806,20.4228285 38.6948296,16.0833475 42.008806,13.4647006 C42.9437424,12.7398436 43.9608228,12.5307383 44.4652872,12.8380078 C44.9459235,13.12097 45.0236781,13.8215196 44.7195573,14.3008103 C43.9476547,14.2765029 43.3296937,14.5099156 42.826797,15.0262905 C41.8363664,16.0587286 41.4921141,17.0547057 41.8072084,17.9886679 C43.3365913,20.1523316 46.3868918,15.8742422 46.2395344,13.2683721 C46.1865483,12.3340983 45.6849057,11.4490623 44.9368312,11.0183863 C43.8209899,10.354921 42.1191674,10.526942 41.0180618,11.0557822 C39.5441732,11.6089297 37.2099674,13.5385574 35.8480078,15.0384441 C34.1330171,16.9194572 31.1918238,19.0089524 30.2722502,18.7752281 C30.5741763,17.9762026 33.0585613,12.9240184 30.4450033,11.0308516" id="Shape" fill="#000000"></path>
                    <path d="M94.7615425,4.11011953 C94.1169318,11.461216 88.368421,15.776078 86.9462642,16.1198085 C86.0843795,16.2921412 84.6129991,15.9113265 85.9260486,12.8258541 C87.8605079,8.67085954 91.1610027,5.1428693 94.7038536,3.33602468 C94.7894464,3.64329426 94.7872517,3.83962262 94.7615425,4.11011953 M83.5608037,22.6351068 C83.1482027,21.7503825 82.1715672,21.1850813 81.1297182,21.2461612 C77.7451983,21.5534308 74.4352976,24.3194799 72.6980466,28.2899881 C71.7863111,30.3308686 71.2884308,32.01493 70.9617361,34.6943453 C72.014245,33.4895745 74.1600213,31.5103972 76.5954961,30.4290328 C76.5954961,30.4290328 76.9272073,27.8599354 78.6171158,25.5734886 C79.2560831,24.6267494 80.5365258,23.1025554 81.9731049,23.5079891 C83.2284655,23.9261998 82.78702,27.3803331 81.1193718,30.7235254 C79.8843904,33.182305 77.9953925,35.6413962 76.0831936,37.3372996 C74.3932851,38.7633294 71.8929102,40.4841634 69.7051214,39.1566095 C68.3274854,38.345742 67.6242451,36.6489036 67.7728568,34.4609327 C68.4315762,28.2532155 71.2740087,22.9673069 75.3426437,16.9437645 C79.5379435,11.3508981 84.1618342,5.61000627 90.3912948,2.54884131 C91.6617047,1.90968327 92.8393107,1.76228117 93.8560776,2.1555612 C93.8560776,2.1555612 88.0072383,5.35166296 85.2206136,11.2645759 C84.5120435,12.7644626 83.5253752,14.7922545 84.518314,16.5872571 C85.0375141,17.5215309 85.9589689,17.5953879 86.7007729,17.5461499 C90.1175861,16.7592782 92.3254407,13.5877954 94.1282187,10.6871211 C95.1747707,8.48637317 96.1043771,6.2984022 96.1043771,3.86455321 C96.1043771,3.5694374 96.0890143,3.17584568 96.0633051,2.88072979 C97.6958383,2.02031279 101.042735,3.54450681 101.042735,3.54450681 C103.658488,4.40554704 109.228915,8.64655225 111.10694,9.45741968 C112.023692,8.40036263 113.529247,6.80231175 114.37765,6.00328631 L113.149566,5.25349882 C111.185008,4.06119327 109.10758,2.92996774 107.061819,1.81151905 C102.41849,-0.708652088 98.6389264,0.176695583 96.715127,0.865091507 C95.9589007,1.13527681 95.267888,1.36900106 95.267888,1.36900106 C93.8400877,-0.18012356 91.4996115,-0.0324097683 89.7739609,0.385489243 C83.5705231,2.1555612 77.8097847,6.47042327 71.6336236,13.9567681 C67.0934445,19.8204431 64.2770348,24.8850927 62.7758693,29.888039 C61.6189561,33.2564734 61.2671792,38.2104936 64.0914271,41.148252 C66.4927275,43.6431809 69.676277,43.1024987 71.9248899,42.2053091 C76.7967802,39.820698 81.1754931,34.6821916 83.3560708,28.7692788 C83.881855,27.0116721 84.4668956,24.5282735 83.5608037,22.6351068" id="Shape" fill="#000000"></path>
                    <path d="M128.864461,5.04439347 C125.771834,6.79015806 122.566025,7.92076036 118.686133,7.52748033 C117.609796,8.73256279 116.563244,9.97410622 115.597582,11.2521106 C121.04448,12.6292142 126.818386,9.5680492 130.037678,6.65490965 C133.445085,3.7168395 135.192369,0.0168281888 135.192369,0.0168281888 C135.192369,0.0168281888 132.638381,2.91781406 128.864461,5.04439347" id="Path" fill="#000000"></path>
                    <polygon id="Path" fill="#000000" points="70.4230973 11.0922432 66.3663763 11.0922432 64.078259 14.9399683 68.1337259 14.9399683"></polygon>
                    <path d="M112.95706,37.5217859 C112.955493,37.5217859 112.538816,37.8904471 112.538816,37.8904471 C111.944997,38.4189756 111.332679,38.9845884 110.594951,38.7019378 C110.390218,38.628081 110.246623,38.357584 110.212762,38.1487903 C110.178274,36.6364383 110.864584,35.2353391 111.52832,33.8710125 L111.698565,33.5145051 C113.609509,30.3430223 115.830532,26.6059267 119.09309,24.0118987 C119.643016,23.6186187 120.239344,23.2864185 120.868591,23.5447617 C121.013754,23.6803218 121.182432,23.9137345 121.182432,24.1474588 C121.182432,24.221004 121.116591,24.4179557 121.078027,24.4790357 C120.167232,25.941838 119.298764,27.4784974 118.456004,28.9537651 C116.80654,31.8669047 115.095939,34.8785201 112.95706,37.5217859 M95.2807426,30.0475948 C95.1556455,30.1339169 92.9524939,29.3962831 92.5270382,27.3681795 C92.1658555,25.6224149 93.3754413,24.2577766 94.5464633,23.5696923 C95.0481059,23.1764123 95.8049591,23.0411638 96.3602148,23.2374922 C96.874712,23.581846 97.0145449,24.1966967 97.0145449,24.8601621 C97.0145449,25.2659074 96.9606183,25.6841181 96.9126487,26.0649329 C96.9126487,26.0649329 96.9035565,26.1387897 96.9019888,26.1509434 C96.5351626,27.5155816 95.9726959,28.8552893 95.2807426,30.0475948 M86.8628662,38.2961924 C86.6380676,37.9643039 86.5634482,37.5831775 86.5562371,37.1902091 C86.5129705,34.7803558 89.121512,30.4901128 90.963481,28.0930364 L90.9675568,28.0930364 C91.7388323,29.8755737 93.4870568,30.8715508 94.5423874,31.3262225 C93.2315326,34.22752 88.7368148,40.4598561 86.8628662,38.2961924 M118.669516,38.7633294 C118.2334,39.0584453 117.620456,38.8125673 117.849957,38.1366366 C118.420575,36.4151793 120.689568,32.8753471 120.689568,32.8753471 L127.008697,21.7011445 L122.680148,21.7011445 C122.474788,22.0698057 122.03491,22.8320585 122.03491,22.8320585 C121.834253,22.50017 121.235418,21.7746898 120.988986,21.615134 C119.931147,20.951357 118.378876,21.2707802 117.308183,21.872854 C112.655134,24.5778231 109.259327,29.9248116 106.580869,34.0922715 C106.580869,34.0922715 103.762892,38.7262451 102.197767,39.0705989 C100.976267,39.1687631 101.102305,37.5339396 101.154351,37.1531248 C101.627149,34.399541 102.724492,31.7808941 103.829673,29.4087484 C106.077032,27.8599354 108.642934,25.8315202 110.973691,23.606465 C116.033697,18.799847 120.2986,13.3543827 120.921577,12.1374582 C120.921577,12.1374582 120.247495,12.2727067 119.44957,12.297014 C115.55745,17.693552 107.593247,25.5364043 105.178778,26.7044025 C106.247904,24.1474588 113.159285,11.9408182 119.040104,6.10145053 L119.966575,5.21641455 C121.397511,3.82746902 122.879865,2.40143921 124.035837,2.16771488 C124.157799,2.1555612 124.31519,2.16771488 124.450633,2.45067709 C124.501424,3.53235313 124.097602,4.33137857 123.632015,5.24134514 L122.981134,6.56889911 C122.981134,6.56889911 123.904156,6.39687803 124.509263,6.19992636 C125.212503,4.88483769 125.99099,3.40925831 125.704426,1.65196326 C125.608174,1.08635054 125.19714,0.655986155 124.658501,0.557822013 C122.904006,0.225621848 120.991494,1.51640324 119.452705,2.56130661 L119.39094,2.59807919 C111.482545,8.75687008 104.803173,17.6321605 98.9649941,29.7527906 C98.5411061,30.0725254 96.9070053,30.4533402 96.6282801,30.2691654 C97.2054826,29.0893252 97.9309832,27.503428 98.2946741,25.782594 C98.3580065,25.290838 98.4160089,24.7863052 98.4160089,24.2948609 C98.4160089,23.2374922 98.1604847,22.2421383 97.2070502,21.5534308 C96.0890143,21.0002833 94.7069889,21.2589382 93.7758148,21.6765256 C89.6015213,23.3973596 86.4822448,27.6508301 84.2311236,31.1542014 C83.0205973,33.3792566 81.8141468,35.7638677 81.4796139,38.4928325 C81.244469,40.6318772 81.7235377,42.0083574 82.9469185,42.697065 C84.2044739,43.3359114 85.7880969,42.672446 86.4101337,42.3527112 C90.6383538,40.1401213 93.5927152,35.7024761 95.9212775,31.6456456 C96.0143949,31.633492 97.2857454,31.5967194 98.2473316,31.3508414 C98.2608132,31.3508414 98.2658296,31.3508414 98.287463,31.3633067 C98.2319688,31.5474814 97.7353426,33.0224376 97.7353426,33.0224376 C96.2583187,37.3251459 95.5760847,40.2507507 96.9712782,41.9840501 C98.9624858,44.4300527 102.260472,41.897728 104.944574,38.554224 C104.367998,42.5615049 106.45734,43.1885093 108.049742,42.8812398 C109.879797,42.3894838 111.918347,40.4473908 112.864884,39.4517253 C112.56139,40.6194119 112.644161,42.7092187 114.308047,42.918324 C115.448343,43.1274293 116.30239,42.5496629 117.291253,42.0208227 C120.834731,40.103037 125.075805,33.6740608 126.177224,31.9039889 L124.733121,31.9039889 C123.167369,34.2025894 121.175847,37.300527 118.669516,38.7633294" id="Shape" fill="#000000"></path>
                </g>
            </g>
        </g>
    </g>
</svg>