<svg width="489" height="136" viewBox="0 0 489 136" fill="none" xmlns="http://www.w3.org/2000/svg">
<path d="M419.11 30.2128C415.709 26.7551 414.001 22.5816 414.001 17.696C414.001 12.9206 415.709 8.73607 419.059 5.27835C422.46 1.78392 426.578 0 431.357 0C436.047 0 440.154 1.74721 443.559 5.23063C446.982 8.69202 448.724 12.9206 448.724 17.696C448.724 22.5816 447.015 26.7551 443.599 30.2128C440.183 33.6963 436.044 35.4361 431.353 35.4361C426.578 35.4361 422.46 33.6963 419.11 30.2128ZM489 70.1748V59.4126C489 49.2413 480.743 40.9678 470.557 40.9678H392.149C381.963 40.9678 373.71 49.2413 373.71 59.4126V99.9399H461.172V106.084H373.71V116.828C373.71 127.007 381.96 135.262 392.149 135.262H470.557C480.743 135.262 489 127.007 489 116.828V76.3121H401.545V70.1748H489Z" fill="black"/>
<path d="M0 49.3845C0 43.7868 2.50878 40.9861 8.10672 40.9861H59.7003V52.6256C59.7003 58.2233 56.9013 60.8735 51.2997 60.8735H23.5855V77.8134H54.5431V96.963H23.5855V115.378H60.4349V127.011C60.4349 132.612 57.6396 135.262 52.0343 135.262H8.10672C2.50878 135.262 0 132.458 0 126.864V49.3845ZM70.0329 49.3845C70.0329 43.7868 72.538 40.9861 78.1433 40.9861H108.8C130.325 40.9861 142.707 50.8564 142.707 69.4187C142.707 82.2328 137.844 90.4807 126.196 95.1938L144.621 131.136C145.208 132.462 145.95 133.787 145.95 135.262H125.608C121.333 135.262 119.562 135.262 117.501 130.99L100.987 96.963H93.6184V135.262H70.0329V49.3845V49.3845ZM93.6184 60.8698V77.8097H107.033C113.814 77.8097 119.121 76.9251 119.121 69.415C119.121 62.0481 113.814 60.8698 107.033 60.8698H93.6184V60.8698ZM181.338 40.252C200.945 40.252 211.116 42.4617 211.116 51.5942V60.8735H184.287C177.066 60.8735 175.002 62.7896 175.002 66.618C175.002 77.9602 215.98 75.6037 215.98 107.424C215.98 122.595 207.285 136 180.75 136C163.358 136 149.649 133.199 149.649 124.658V115.378H181.338C187.825 115.378 190.921 113.312 190.921 108.746C190.921 96.3757 150.09 98.7286 150.09 66.0307C150.09 51.5942 159.67 40.252 181.338 40.252ZM280.852 40.9861V52.9193C280.852 58.3701 278.053 60.8735 272.598 60.8735H260.95V135.262H237.365V60.8698H217.467V48.9367C217.467 43.4895 220.266 40.9824 225.721 40.9824H280.852V40.9861ZM288.235 49.3845C288.235 43.7868 290.744 40.9861 296.345 40.9861H347.935V52.6256C347.935 58.2233 345.136 60.8735 339.534 60.8735H311.82V77.8134H342.778V96.963H311.82V115.378H348.673V127.011C348.673 132.612 345.871 135.262 340.273 135.262H296.345C290.744 135.262 288.235 132.462 288.235 126.864V49.3845Z" fill="black"/>
</svg>
