<svg id="Layer_1" data-name="Layer 1" xmlns="http://www.w3.org/2000/svg" width="51.43mm" height="34.15mm" viewBox="0 0 145.79 96.79">
  <g>
    <polygon points="145.79 0 7.49 23.95 0 37.37 0 96.79 138.3 49.74 145.79 42.26 145.79 0"/>
    <polygon points="142.41 4.01 10.86 26.79 10.86 82.01 142.41 39.8 142.41 4.01" style="fill: #fff"/>
    <path d="M32.16,54.29l0,12.69.88-.26L33,54l-.88.3" style="fill: #ccc"/>
    <path d="M19.3,48.38l.89-.11V33.61l-.88.17Z" style="fill: #ccc"/>
    <path d="M33,31.1l-.88.17,0,14.18.88-.31Z" style="fill: #ccc"/>
    <path d="M19.29,70.82l.88-.26V57l-.88.11Z" style="fill: #ccc"/>
    <path d="M16.65,56.86l.88-.11,0-6.94-.88.11,0,6.94" style="fill: #ccc"/>
    <polygon points="101.72 17.64 102.2 46.14 103.09 45.88 102.61 17.47 101.72 17.64" style="fill: #ccc"/>
    <path d="M90.06,19.93,86.73,39.3l.8-.12,3.33-19.41-.25.05Z" style="fill: #ccc"/>
    <path d="M95,44.91l.56,3.2.92-.27-.57-3.24-.91.31" style="fill: #ccc"/>
    <path d="M94.38,37.53l.28-.1-.14-.82Z" style="fill: #ccc"/>
    <path d="M85.72,40.63l-.79.1c-.36,2-.73,3.88-1.09,5.8l.78-.09.12-.61q.48-2.59,1-5.2" style="fill: #ccc"/>
    <polygon points="132.85 11.55 132.38 13.91 132.82 15.53 133.64 11.39 132.85 11.55" style="fill: #ccc"/>
    <polygon points="119.98 36.35 122.22 40.18 123.12 39.91 119.95 34.49 119.98 36.35" style="fill: #ccc"/>
    <path d="M120.43,14c-.21,1.34-.49,2.65-.82,3.95l0,2.2a42.82,42.82,0,0,0,1.58-6.31Z" style="fill: #ccc"/>
    <polygon points="112.56 15.52 113.09 42.9 113.98 42.63 113.45 15.34 112.56 15.52" style="fill: #ccc"/>
    <path d="M45.19,45.54c0-7.89.83-13,2.73-16.14a9.32,9.32,0,0,1,.74-1c-2.7,2.21-4.41,6.86-4.36,17.71.06,11.67,3.14,15.27,6.75,15.55-3.85-1.43-5.82-6.81-5.86-16.07" style="fill: #ccc"/>
    <path d="M57.32,42.21A51.2,51.2,0,0,0,57,35.69c-.36-2.43-1-3.07-1.24-3.07h-.11a1,1,0,0,0-.51.33c1.3,1.89,1.29,7.16,1.31,10.11s.13,8.26-1.16,10.79h.09c2-.58,2-8,2-10.84Z" style="fill: #ccc"/>
    <path d="M77,30.82a1.86,1.86,0,0,0-1.73-1.58v.4a2.78,2.78,0,0,1,.82,1.53,7.07,7.07,0,0,1-.76,4.16v.84c1.31-2,1.93-4,1.65-5.35" style="fill: #ccc"/>
    <path d="M65,31.58l.88-.55,0-6.53-.89.4Z" style="fill: #ccc"/>
    <path d="M67.3,31.8l-.57.37L67,56.63l.89-.26-.24-24.76-.31.19" style="fill: #ccc"/>
    <polyline points="75.45 46.91 75.47 48.74 78.13 53.3 79.03 53.04 75.45 46.91 75.45 46.91" style="fill: #ccc"/>
    <path d="M130.29,26.78l-3.88-14h0c-.07.58-.14,1.16-.23,1.74l-.09.51,3.36,12.11L129.65,38l.89-.26Z" style="fill: #ccc"/>
    <polygon points="84.66 51.36 84.66 51.36 85.48 51.12 84.66 51.36" style="fill: #ccc"/>
    <path d="M85.52,50.89l.69-4-.5,0-.29,0-.5,2.92Z" style="fill: #ccc"/>
    <path d="M33.89,30.74l0,15c-1.66.62-3.36,1.16-5.09,1.64l0-15.67-7.72,1.51v15.8c-.87.13-1.74.24-2.62.34q0,3.47,0,6.94c.9-.1,1.78-.22,2.66-.35V70.29L28.85,68V54.35c1.73-.47,3.43-1,5.1-1.63l0,13.73,7.24-2.15-.13-35Z"/>
    <polygon points="108.55 38.85 108.14 16.2 103.5 17.11 103.99 45.61 107.25 44.64 108.65 44.22 113.11 42.89 113.01 37.61 108.55 38.85"/>
    <path d="M96.37,18.51l-4,.78-.55.1L88.3,40q-.8.14-1.59.24c-.36,1.94-.73,3.87-1.09,5.79.56-.06,1.12-.12,1.68-.2l-.86,5,5.25-1.56.69-4.49c1.44-.39,2.85-.86,4.24-1.39l.74,4.19,4.88-1.45L96.87,18.41ZM93.28,38.82l1.18-7.76,1.22,7c-.79.29-1.59.56-2.4.8"/>
    <polygon points="138.32 10.29 134.63 11.02 132.97 19.44 130.86 11.75 127.25 12.46 131.18 26.65 131.43 37.44 135.23 36.31 135.02 27.38 138.32 10.29"/>
    <path d="M126.13,14.56c.1-.64.18-1.29.25-1.93l-4.17.82a41.81,41.81,0,0,1-3.36,11.13l-.21-10.43-4.3.84.54,27.38,4.3-1.28L119,33.26c.22-.33.44-.67.65-1l4.33,7.4,4.19-1.25L122.1,27.81a47.63,47.63,0,0,0,4-13.25"/>
    <path d="M55.4,25.82C50,26.87,46,29,46.09,45.53c.06,14.64,4.9,16.59,9.56,15.19,5.26-1.58,8.94-4,8.8-19.72-.12-13.75-4.55-16-9.05-15.18m.21,28.89c-2.83.8-2.79-7-2.81-10.83s-.2-11.53,2.65-12.13,2.74,7,2.77,10.79.21,11.38-2.61,12.17"/>
    <path d="M83.19,29.21A8.26,8.26,0,0,0,75,22.36a17.79,17.79,0,0,0-8.21,2v6.68c.57-.37,1.13-.7,1.68-1l.25,26.05,5.89-1.75-.09-7.85c.38-.32.75-.66,1.12-1l4.25,7.28,5.7-1.7L79.79,40.82c2.62-3.67,4.16-7.77,3.4-11.61m-8.72,9.62L74.35,28.3c1.9-.07,3.19.71,3.52,2.34.43,2.14-.89,5.24-3.4,8.19"/>
  </g>
</svg>
