<?xml version="1.0" encoding="UTF-8"?>
<svg width="131px" height="47px" viewBox="0 0 131 47" version="1.1" xmlns="http://www.w3.org/2000/svg" xmlns:xlink="http://www.w3.org/1999/xlink">
    <title>ikea</title>
    <g id="Page-1" stroke="none" stroke-width="1" fill="none" fill-rule="evenodd">
        <g id="Home" transform="translate(-354.000000, -1725.000000)" fill-rule="nonzero">
            <g id="Group" transform="translate(90.000000, 1580.000000)">
                <g id="ikea" transform="translate(264.000000, 145.000000)">
                    <polygon id="Path" points="0 47 0 0 131 0 131 47"></polygon>
                    <path d="M66.1840198,45 C83.7294871,45 101.479172,42.984059 117.804572,36.214063 C123.034924,34.050541 130,29.9302601 130,23.4996254 C130,17.0540079 123.020712,12.9487099 117.804572,10.7851879 C101.479172,4.01594104 83.7287391,2 66.1840198,2 C48.6834354,2 30.6981159,3.88334292 14.4602366,10.7851879 C9.64056291,12.8303455 2,17.4218366 2,23.4996254 C2,29.5624314 9.62634999,34.1681562 14.4602366,36.214063 C30.6973678,43.1159079 48.6976483,45 66.1840198,45 L66.1840198,45 Z" id="Path" fill="#000000"></path>
                    <path d="M84.8055273,25.5736463 C84.4679943,25.3502461 84.1028924,25.1866717 83.692339,25.1866717 L77.6182348,25.1866717 L77.6182348,26.1984097 L85.6400461,26.1984097 C86.0342071,26.1984097 86.4007993,26.034078 86.7375872,25.8265808 L86.7375872,31.9992427 L66.4364289,31.9992427 C66.7873738,31.7016282 67.1092596,31.3297993 67.1092596,30.8534646 L67.1092596,15.1601666 C67.1092596,14.6702007 66.7873738,14.2976145 66.4364289,14 L86.7368421,14 L86.7368421,19.5781901 C86.4007993,19.3555471 86.0342071,19.1912154 85.639301,19.1912154 L77.6174897,19.1912154 L77.6174897,20.3665278 L83.6915938,20.3665278 C84.1021473,20.3665278 84.4672492,20.2173419 84.8047822,19.9803105 L84.8047822,25.5736463 L84.8055273,25.5736463 Z M104.196911,28.3998485 L99.7046671,28.3998485 L98.811285,31.0920106 C98.7814638,31.1882816 98.7666311,31.2886983 98.7673237,31.3896251 C98.7673237,31.6130254 98.8403441,31.8068913 98.9431687,32 L88.5943914,32 C88.8283547,31.7622113 88.9900427,31.5100341 89.1070243,31.1965165 L94.6252794,16.0673987 C94.7579083,15.6955699 94.8741448,15.2942067 94.8741448,14.9072321 C94.8741448,14.5800833 94.7579083,14.2824688 94.6252794,14 L111.353654,14 C111.222516,14.2976145 111.091377,14.5952291 111.091377,14.9223779 C111.091377,15.323741 111.207614,15.7107156 111.353654,16.0673987 L117.442661,31.1965165 C117.560387,31.5244226 117.736978,31.761454 118,32 L105.076136,32 C105.163314,31.7773571 105.222922,31.5539568 105.222922,31.3161681 C105.222922,31.182128 105.207275,31.0632336 105.163314,30.9443393 L104.196911,28.3998485 Z M47.4965793,25.3941689 L47.4965793,30.8383188 C47.4965793,31.329042 47.8043081,31.6864824 48.155253,31.9984854 L35.9049651,31.9984854 C36.241753,31.6864824 36.5636388,31.329042 36.5636388,30.8383188 L36.5636388,15.1753124 C36.5636388,14.6702007 36.241753,14.3271488 35.9049651,14 L48.1559981,14 C47.8043081,14.3127603 47.4973244,14.6694434 47.4973244,15.1753124 L47.4973244,20.5899281 L51.0537154,15.1753124 C51.15654,15.011738 51.2437174,14.8186293 51.2437174,14.6096176 C51.2437174,14.4013631 51.1416379,14.1931087 51.0537154,14 L63.1438055,14 C62.6239988,14.275482 62.1809155,14.6797093 61.8555172,15.1753124 L57.6106482,21.4380916 L63.4649461,30.8390761 C63.7726749,31.3449451 64.1966402,31.7167739 64.7234302,31.9992427 L50.6439071,31.9992427 C50.7459866,31.8508141 50.8778704,31.6872397 50.8778704,31.5092768 C50.8778704,31.2714881 50.7608887,31.0329421 50.6439071,30.8390761 L47.4965793,25.3941689 L47.4965793,25.3941689 Z M19,14 L31.5431145,14 C31.1921696,14.3127603 30.8844408,14.6542976 30.8844408,15.1601666 L30.8844408,30.8390761 C30.8844408,31.3297993 31.1921696,31.6872397 31.5431145,31.9992427 L19,31.9992427 C19.3367879,31.6872397 19.6437716,31.3297993 19.6437716,30.8390761 L19.6437716,15.1601666 C19.6437716,14.6542976 19.3367879,14.3127603 19,14 Z" id="Shape" fill="#FFFFFF"></path>
                    <polygon id="Path" fill="#000000" points="101 25 103 25 101.963954 22"></polygon>
                </g>
            </g>
        </g>
    </g>
</svg>