<svg id="Layer_1" data-name="Layer 1" xmlns="http://www.w3.org/2000/svg" width="171.52" height="121.46" viewBox="0 0 171.52 121.46">
  <g>
    <g>
      <path d="M415.64,273.32c2.68,0,3.34-1.14,5.3-4.54l1.14-2a11.63,11.63,0,0,1,2.95-3.6,5.91,5.91,0,0,0,2.51-4.63,5.77,5.77,0,0,0-1.74-4.46c-2.35-2.57-7-4.56-9.49-4.56-3.4,0-9.07,3.18-9.76,11.68-.44,4.58,1.17,7.41,2.59,9A9.3,9.3,0,0,0,415.64,273.32Z" transform="translate(-337.02 -236.75)" style="fill: #828282"/>
      <path d="M410,326.41c-4.06-1.59-10.82-1.33-21.91.84-9.49,1.86-23,5.65-30.45,7.8,1.65-2.34,4-5.37,6.14-8.18,15.13-19.69,43.3-56.33,29-81.55-2-3.55-4.49-4.56-6.21-4.78-2.51-.33-5.16.78-7.47,3.14l-.82.84.54,4.8c.73,5.94-9,24.47-17.53,40.82-15.16,29-24.75,48.54-20.12,56.59,4.39,7.64,10.51,11.49,18.24,11.49a27.09,27.09,0,0,0,5.17-.53,131.92,131.92,0,0,0,16.29-4.81,194.78,194.78,0,0,1,25.68-7.3c6.35-1.24,13.79,1.69,17.78,3.26l.91.36a5.19,5.19,0,0,1,2.22,1.93,8,8,0,0,0,3.31,2.8c.67.26,2.68,1.06,4.24-.18a3.13,3.13,0,0,0,1.09-3C435.35,345.76,420.72,330.6,410,326.41Z" transform="translate(-337.02 -236.75)" style="fill: #828282"/>
      <path d="M506.92,307.52c-1.88-1.24-4.5-.52-6,1.62l-.07.12a29.27,29.27,0,0,1-3.24,4.48l.29-.5c2-3.59,4.58-8.06,4.58-12.38a9.93,9.93,0,0,0-6.57-9.54,6.6,6.6,0,0,0-1.47-.37c3.06-2.21,5.66-3.45,7.4-3.45a3,3,0,0,0,2.61-1.51,3.92,3.92,0,0,0,.48-2c0-3.5-4.07-11.79-10.48-11.79-10.4,0-28,18.31-34.25,30.43-5.05,6-8.76,9.39-11.27,11.25,1.9-3.34,5-8,7.26-11.54,6.84-10.44,9.83-15.29,9.83-17.93,0-5.92-2.78-12.21-7.93-12.21-.9,0-3.35,0-15.24,11.31-.43-7.8-5.1-12.54-8.49-12.54a3.46,3.46,0,0,0-2.61,1.12,3.78,3.78,0,0,0-.94,2.6c0,2.18-4.35,10.38-5.82,12.74-8.42,12.77-22.07,26.72-25.07,28h0c0-2.37,4.71-9.81,7.28-13.9,3.87-6.13,7.2-11.43,7.52-15,.55-6.18-1.82-9.79-3.29-11.39a7.39,7.39,0,0,0-5.21-2.69c-3.77,0-4.37,3.41-4.59,4.7a7.19,7.19,0,0,1-.26,1.15,106.29,106.29,0,0,1-7.86,15c-3.75,6.35-7,11.82-7.37,16.24-.36,3.89.37,9.26,3.49,12.68a10,10,0,0,0,7.64,3.25c2.39,0,6.41-1.08,14.69-9.43,1.1,5.44,4.51,9.58,7.39,9.58a3.56,3.56,0,0,0,3.2-2.08,7.35,7.35,0,0,0,.64-3.26c.35-1.39,4.24-7.49,13.39-18.31l1.76-2.06c-2,4.07-3.5,8-3.5,10.92,0,8.74,3.74,14.84,9.1,14.84,4.52,0,9.91-4.41,14.4-8.91,2,5.56,7,8.91,10.78,8.91,2.75,0,7.45-4.08,12.06-8.92a15.84,15.84,0,0,0,3.76,5.93,9,9,0,0,0,6.22,3h0c8.24,0,13.41-7.63,15.89-11.27l.36-.52C509.32,311,508.53,308.58,506.92,307.52Zm-16.35-13.39c-1.48,2.86-9.94,12.53-15.4,17.94a85.41,85.41,0,0,1,11.71-14.49c1.25-1.26,2.49-2.42,3.69-3.48Z" transform="translate(-337.02 -236.75)" style="fill: #828282"/>
    </g>
    <g>
      <path d="M412.66,269.59c2.68,0,3.34-1.14,5.3-4.54.31-.54.68-1.19,1.13-2a11.76,11.76,0,0,1,3-3.6,6,6,0,0,0,2.51-4.63,5.82,5.82,0,0,0-1.74-4.46c-2.35-2.57-7-4.56-9.49-4.56-3.41,0-9.07,3.18-9.77,11.68-.43,4.58,1.17,7.41,2.6,9A9.3,9.3,0,0,0,412.66,269.59Z" transform="translate(-337.02 -236.75)"/>
      <path d="M407,322.68c-4.07-1.59-10.82-1.33-21.92.84-9.48,1.86-23,5.65-30.45,7.8,1.66-2.34,4-5.37,6.14-8.18,15.14-19.69,43.31-56.33,29-81.55-2-3.55-4.48-4.56-6.2-4.78-2.52-.33-5.17.78-7.47,3.14l-.83.85.55,4.79c.73,5.94-9,24.47-17.53,40.82-15.16,29-24.75,48.54-20.12,56.59,4.39,7.64,10.51,11.49,18.23,11.49a27.19,27.19,0,0,0,5.18-.53,131.92,131.92,0,0,0,16.29-4.81,193.17,193.17,0,0,1,25.67-7.29c6.36-1.25,13.79,1.68,17.79,3.25l.91.36a5.22,5.22,0,0,1,2.21,1.94,8.2,8.2,0,0,0,3.32,2.79c.66.26,2.68,1.06,4.24-.18a3.15,3.15,0,0,0,1.09-3C432.37,342,417.73,326.87,407,322.68Z" transform="translate(-337.02 -236.75)"/>
      <path d="M503.94,303.79c-1.88-1.24-4.5-.52-6,1.62l-.08.12a28.66,28.66,0,0,1-3.23,4.48l.28-.5c2-3.59,4.58-8.06,4.58-12.38a9.93,9.93,0,0,0-6.56-9.54,7.53,7.53,0,0,0-1.47-.37c3.05-2.21,5.65-3.45,7.4-3.45a3,3,0,0,0,2.61-1.51,3.9,3.9,0,0,0,.48-2c0-3.49-4.07-11.78-10.48-11.78-10.4,0-28,18.3-34.25,30.43-5.06,5.94-8.77,9.38-11.28,11.24,1.91-3.34,5-8,7.27-11.54,6.83-10.44,9.83-15.29,9.83-17.93,0-5.91-2.78-12.2-7.93-12.2-.9,0-3.35,0-15.24,11.3-.44-7.8-5.1-12.54-8.49-12.54a3.5,3.5,0,0,0-2.62,1.12,3.83,3.83,0,0,0-.93,2.6c0,2.18-4.36,10.39-5.82,12.74-8.42,12.77-22.07,26.72-25.07,28h0c0-2.38,4.71-9.82,7.28-13.9,3.86-6.14,7.2-11.44,7.52-15,.55-6.18-1.82-9.79-3.29-11.39a7.4,7.4,0,0,0-5.22-2.69c-3.76,0-4.36,3.42-4.59,4.7a7.34,7.34,0,0,1-.25,1.15,108,108,0,0,1-7.86,15c-3.76,6.34-7,11.81-7.37,16.23-.36,3.89.37,9.26,3.48,12.68a10.06,10.06,0,0,0,7.65,3.25c2.38,0,6.41-1.08,14.69-9.43,1.09,5.44,4.5,9.58,7.39,9.58a3.56,3.56,0,0,0,3.2-2.08,7.49,7.49,0,0,0,.64-3.26c.35-1.38,4.24-7.49,13.38-18.3l1.76-2.07c-2,4.07-3.49,8-3.49,10.93,0,8.73,3.74,14.83,9.09,14.83,4.52,0,9.92-4.4,14.4-8.91,2,5.56,7,8.91,10.78,8.91,2.75,0,7.46-4.08,12.06-8.92A15.91,15.91,0,0,0,482,319a9,9,0,0,0,6.22,3h0c8.24-.05,13.41-7.63,15.89-11.27l.35-.52C506.34,307.24,505.55,304.85,503.94,303.79ZM487.59,290.4c-1.49,2.86-9.95,12.53-15.41,17.94a86.42,86.42,0,0,1,11.71-14.49q1.89-1.89,3.69-3.48Z" transform="translate(-337.02 -236.75)"/>
    </g>
    <g>
      <path d="M412.67,267.11c1.46,0,1.26-.1,4.27-5.25s4.86-3.91,5.15-7.21-6.52-6.32-8.75-6.32-6.71,2.33-7.29,9.43S410.43,267.11,412.67,267.11Z" transform="translate(-337.02 -236.75)" style="fill: #fff"/>
      <path d="M406.1,325c-3.55-1.39-10.07-1.09-20.53,1-13.42,2.63-35.55,9.32-35.55,9.32-2.66-4.63,56.17-59.72,37.62-92.46-2.74-4.84-6.6-4.33-9.73-1.13l.41,3.6c1.83,15-45.73,83-38,96.47,2.8,4.88,8.34,12.19,20.78,9.76,10.95-2.15,24.2-8.62,42-12.11,7.6-1.48,16.23,2.25,20,3.73,2.94,1.09,3.46,3.91,5.59,4.75C436.69,351.05,418.69,329.9,406.1,325Z" transform="translate(-337.02 -236.75)" style="fill: #fff"/>
      <path d="M500,306.81c-3.22,5.34-6.72,8.63-9,7.63-2.85-1.25,6-10.21,6-17.31s-8-8.55-6.91-6.8-19.15,24-21.48,24c-7,0,18.86-33,30.23-33,2.14,0-1.65-10.31-7.38-10.31-8.81,0-25.93,16.9-32.17,29.33-6.68,7.89-13.44,14.22-17,14.22-4.47,0,18.28-29.06,18.28-33.83s-2-9.72-5.44-9.72c-3.21,0-19.9,16.87-21,17.93a12,12,0,0,0,3.25-7.92c0-9.72-7.09-13.41-7.09-10s-6.08,13.89-6.23,14.1c-8.65,13.12-24,29.16-26.93,29.16-10.2,0,11.38-24,12.06-31.59s-3.7-11.38-6-11.38-1.85,2.43-2.53,4.28c-4.57,11.67-14.48,23.53-15.06,30.53-.49,5.25,1.26,13.22,8.65,13.22,4.21,0,11.12-6.44,17.48-13.56a9.19,9.19,0,0,0-.66,3.06c0,7.68,6.61,14.87,6.61,7.68,0-4.57,27.8-36.94,31-36.94,0,0-14.39,19.44-14.39,27.6,0,7.3,2.82,12.35,6.61,12.35,4.12,0,10.24-5.38,16.06-11.79,0,.14,0,.28,0,.42,0,6.9,5.64,11.37,9.14,11.37S482,305.1,482,305.1s-1.65,3.6-1.65,5.93,3.88,8.48,7.87,8.46c7.27,0,12-7.52,14.16-10.64S501.5,304.68,500,306.81Z" transform="translate(-337.02 -236.75)" style="fill: #fff"/>
    </g>
  </g>
</svg>
