<svg id="Layer_1" data-name="Layer 1" xmlns="http://www.w3.org/2000/svg" width="293.87" height="159.56" viewBox="0 0 293.87 159.56">
  <path d="M19.4,120.25c-2.28.14-28,.87-16.42-37.72C15.1,42.17,44.39,26.39,48.38,24.17S66.56,12.62,73.06,18.7s-.52,19.78-1.87,23.18S64.1,61.41,64.1,61.41,77,42,84.78,34,98.6,24.23,102,36.29c.93,3.28-3.61,15.28-6.64,23.42-3.89,10.46-5.18,29-5.18,29s15.71-29.93,22.87-42,17.49-26.32,20.36-27.23,5.42,4,6.75,6.15.37,6.19-4.19,21.82-9.92,33.45-11.43,55.13,8,29.79,12.47,30.88,6.27.45,6.27.45-4.18,9.61-14.39,9-20.29-8.34-18.59-36.34,6.47-41.19,6.47-41.19S95.49,97.34,90.71,113c-6.22,20.27,1.53,33.29,1.53,33.29s-9.8,3.22-16.37-3.67-4.65-31.4-1.67-49.26S85,49.46,85,49.46s-23.83,24-30,50.66c-5.6,24.19-4.16,41.1,0,47.74A21,21,0,0,0,57.68,151a18.68,18.68,0,0,0,2.84,2.19h0c-.73,1.45-5.4,9.65-14.93,4.93-10.44-5.17-14.85-23.23-6.64-58.42S64.2,29,64.2,29,41,40.45,30,60.64s-14.87,40.76-13.1,49.94a71.33,71.33,0,0,0,1.86,7.91,7.93,7.93,0,0,0,.52,1.34,1.4,1.4,0,0,0,.25.41ZM242.23,77c-6.7,11.54-17.89,16.93-19.14,10S229.15,64,238,53.92s13.16-5.06,13.16-5.06,2.46,8.56-8.89,28.12m50.27-29c-3.25-7.42-9.21-8.06-12.22-8.78a37.66,37.66,0,0,0-4.83-.9s7.53,9.51,6.67,18.6-5.11,24.52-12.59,28-8-8.82-6.66-16.47,2.78-19.25,2.78-19.25l-10.22-1.66s-.86-5.26-3.38-6.92-10.18-5.11-22.78,7.52-21.16,30.48-20.69,48.38,16.32,11.63,20.55,8.4,12.18-9.81,15.21-14.65,3.83-6,3.83-6,2.13,7.68,7,10.46,17.8,2.16,28-12.64,12.55-26.71,9.29-34.14m-93-16.3a116.75,116.75,0,0,0-8.17,41.58s4.2-6.42,8.89-14.85c3.06-5.49,13.16-28.16,13.9-36.74s-6-11.54-14.62,10m14.07,20.92c-8.54,18.92-22.66,36.76-22.66,36.76a56.45,56.45,0,0,0,3.18,13.24,18,18,0,0,0,12.62,11.54s-2.17,4.13-5.49,5.84c-4.35,2.24-11.69,2-15.26-1.28-4.35-4-7.14-15.53-7.14-15.53s-9,9.78-20.22,15.58-16.33,1.63-18-15.76A84.36,84.36,0,0,1,144,72a16.51,16.51,0,0,1,1.36-3.58,25.16,25.16,0,0,1,4.74-4.59C156,59.12,167,59.65,167,59.65a105.77,105.77,0,0,0-12.68,32.8c-3.72,18.75,4.46,16.74,10,12.49s13.9-13.64,13.9-13.64-.84-10.82-.57-16.33,4.25-37.48,12.57-53.27S210.1-4.57,219.67,2s2.46,31.66-6.08,50.58M153.2,35.89c2.4-2.29,6.74-5,13.75-4.66,12.09.53,7.16,10,4.44,13.55s-13,9.88-19.86,5.31c-4-2.65-3.61-6-2.6-8.25a22,22,0,0,1,4.27-6"/>
</svg>
