<svg width="255" height="111" viewBox="0 0 255 111" fill="none" xmlns="http://www.w3.org/2000/svg">
<path d="M184.195 86.3841H199.037V65.5684H227.074V51.0078H199.031V39.1438H233.43V24.5702H184.195V86.3841ZM69.4058 55.5C69.4058 65.2484 61.2131 73.0315 52.4385 73.0315C43.5658 73.0315 35.4712 65.2484 35.4712 55.5C35.4712 45.7451 43.5658 37.9685 52.4385 37.9685C61.2065 37.9685 69.4058 45.7516 69.4058 55.5ZM84.7254 55.5C84.7254 37.3744 70.3669 23.3949 52.4385 23.3949C34.5035 23.3949 20.1385 37.3809 20.1385 55.5C20.1385 73.6191 34.5035 87.6051 52.4385 87.6051C70.3669 87.6051 84.7254 73.6257 84.7254 55.5V55.5ZM106.113 86.4233H120.962V68.4021H132.051L143.715 86.4233H162.219L147.279 64.7587C154.314 61.605 159.231 54.8144 159.231 46.4437C159.231 34.1293 150.372 24.5702 136.87 24.5702H106.113V86.4233V86.4233ZM136 53.8285H120.962V39.1504H136C142.453 39.1504 144.382 42.402 144.382 46.4437C144.382 50.5768 142.453 53.8285 136 53.8285Z" fill="black"/>
</svg>
