<?xml version="1.0" encoding="UTF-8"?>
<svg width="86px" height="68px" viewBox="0 0 86 68" version="1.1" xmlns="http://www.w3.org/2000/svg" xmlns:xlink="http://www.w3.org/1999/xlink">
    <title>renault-2</title>
    <g id="Page-1" stroke="none" stroke-width="1" fill="none" fill-rule="evenodd">
        <g id="Home" transform="translate(-90.000000, -1714.000000)" fill="#000000" fill-rule="nonzero">
            <g id="Group" transform="translate(90.000000, 1580.000000)">
                <g id="renault-2" transform="translate(0.000000, 134.000000)">
                    <path d="M76.2006115,68 L76.2006115,67.151977 L8.96553494,67.151977 L8.96553494,68 L76.2006115,68 L76.2006115,68 Z M6.53338536,51.4234478 L-4.57192801e-13,51.4234478 L-4.57192801e-13,52.4305315 L0.825579406,52.4305315 C1.03840973,52.4305315 1.36799795,52.7612695 1.36799795,52.9698958 L1.36799795,55.4049205 L5.37821774,55.4049205 L5.37821774,52.4296303 L6.53338536,52.4296303 L6.53338536,51.4234478 L6.53338536,51.4234478 Z M25.8834773,64.6732444 L25.8834773,60.6863646 L23.7165612,60.6863646 L23.7165612,62.3927744 C23.7165612,62.9799019 23.432481,63.6670619 22.9153447,63.6670619 L20.557203,63.6670619 C20.3443727,63.6670619 20.0276554,63.3768776 20.0276554,63.1691526 L20.0276554,58.708245 C20.0276554,58.4991681 20.190381,58.3369533 20.4032113,58.3369533 L21.072041,58.3369533 C21.2848713,58.3369533 21.6098627,58.6712961 21.6098627,58.8799224 L21.6098627,59.7265936 L23.6071581,59.7265936 L23.6071581,55.7261959 L21.6567498,55.7261959 L21.6567498,56.5548433 C21.6567498,56.7634696 21.302339,57.1352119 21.0895087,57.1352119 L20.403671,57.1352119 C20.1908407,57.1352119 20.0281151,56.898198 20.0281151,56.6886705 L20.0281151,52.8671597 C20.0281151,52.6585334 20.3448324,52.4314327 20.5576627,52.4314327 L22.853748,52.4314327 C23.1511588,52.4314327 23.4131745,52.6968342 23.4131745,52.9888208 L23.4131745,54.8191447 L25.427478,54.8191447 L25.427478,51.4234478 L14.6448409,51.4234478 L14.6448409,52.4305315 L15.4704203,52.4305315 C15.6832507,52.4305315 16.0123792,52.7612695 16.0123792,52.9698958 L16.0123792,63.1997931 C16.0123792,63.4084194 15.6956619,63.6670619 15.4828316,63.6670619 L14.6581716,63.6670619 L14.6581716,64.6723432 L25.8834773,64.6732444 L25.8834773,64.6732444 Z M29.8932374,56.5039259 L34.36865,64.6732444 L38.3186522,64.6732444 L38.3186522,52.9320457 C38.3186522,52.7234194 38.6353695,52.4305315 38.8481998,52.4305315 L39.6733195,52.4305315 L39.6733195,51.4234478 L35.2429552,51.4234478 L35.2429552,52.4305315 L36.072212,52.4305315 C36.2850423,52.4305315 36.6022193,52.7220676 36.6022193,52.9302433 L36.6022193,59.8270767 L31.7953797,51.4234478 L26.8088066,51.4234478 L26.8088066,52.4305315 L27.6339263,52.4305315 C27.8472163,52.4305315 28.1768045,52.7454986 28.1768045,52.9541249 L28.1768045,63.1840222 C28.1768045,63.3935497 27.8596276,63.6670619 27.6472569,63.6670619 L26.8221372,63.6670619 L26.8221372,64.6723432 L31.2525015,64.6723432 L31.2525015,63.6670619 L30.4237044,63.6670619 C30.2104144,63.6670619 29.8936971,63.3949015 29.8936971,63.1867258 L29.8932374,56.5039259 L29.8932374,56.5039259 Z M42.7784358,56.2191487 L40.5761246,63.2308843 C40.4943021,63.4467201 40.3655927,63.6684137 40.1527623,63.6684137 L39.2931669,63.6684137 L39.2931669,64.673695 L43.4187655,64.673695 L43.4100316,63.6684137 L42.5862909,63.6684137 C42.3734606,63.6684137 42.1495981,63.4422142 42.2107351,63.2335879 L43.0845805,60.1096008 C43.1048063,60.0280428 43.1590481,59.9559473 43.244548,59.9559473 L44.9209891,59.9559473 L44.9209891,58.736182 L43.7134183,58.7370832 C43.6274587,58.7370832 43.5258702,58.654624 43.5520718,58.5717142 L44.2305546,56.2191487 L42.7784358,56.2191487 L42.7784358,56.2191487 Z" id="Shape"></path>
                    <path d="M44.9214487,59.9550461 L46.4746964,59.9550461 C46.5601963,59.9550461 46.6346639,60.0271416 46.65443,60.1091502 L47.5287351,63.2331373 C47.5907915,63.4417636 47.3660096,63.6679631 47.1536389,63.6679631 L46.3285192,63.6679631 L46.320245,64.6732444 L53.0853074,64.6732444 L53.0853074,63.6679631 L52.2261716,63.6679631 C52.0133413,63.6679631 51.8841722,63.4467201 51.8023497,63.2304337 L48.2596211,51.4234478 L42.2994527,51.4234478 L42.2994527,52.4305315 L42.9737984,52.4305315 C43.5952814,52.4327845 43.8333939,52.8739187 43.7102005,53.3096457 L42.7779761,56.2182475 L44.2300949,56.2182475 L44.8874327,53.9904973 L46.2214145,58.5694612 C46.2485354,58.6532722 46.1281001,58.736182 46.0426003,58.736182 L44.9205294,58.736182 L44.9205294,59.9550461 L44.9214487,59.9550461 L44.9214487,59.9550461 Z M63.2450825,61.5880087 L63.2460019,52.9753029 C63.2460019,52.7662261 63.5732917,52.4314327 63.786122,52.4314327 L64.6075644,52.4314327 L64.6075644,51.424349 L60.4939173,51.424349 L60.4939173,52.4314327 L61.319037,52.4314327 C61.5318674,52.4314327 61.8586975,52.7738862 61.8586975,52.9825125 L61.8577782,61.6344201 C61.8306572,64.0086142 57.4765992,64.2573436 57.4494783,61.5375418 L57.4494783,52.9649392 C57.4494783,52.7558623 57.7763085,52.4314327 57.9891388,52.4314327 L58.8105811,52.4314327 L58.8105811,51.424349 L52.0781557,51.424349 L52.0781557,52.4314327 L52.9041948,52.4314327 C53.1170251,52.4314327 53.4438553,52.7617201 53.4438553,52.9712476 L53.4438553,61.6285624 C53.4433956,65.8952627 63.2450825,66.1219129 63.2450825,61.5880087 Z M70.942829,52.9590815 C70.942829,52.7500046 71.2747156,52.4305315 71.4884653,52.4305315 L72.3154238,52.4305315 L72.3154238,51.4234478 L65.5632323,51.4234478 L65.5632323,52.4305315 L66.3892714,52.4305315 C66.6021017,52.4305315 66.9316899,52.7454986 66.9316899,52.9541249 L66.9316899,63.1840222 C66.9316899,63.3926485 66.6154323,63.6670619 66.402602,63.6670619 L65.7310143,63.6670619 L65.7310143,64.6723432 L76.1983131,64.6723432 L76.1983131,60.6701431 L74.0304776,60.6701431 L74.0304776,62.3765529 C74.0304776,62.9636804 73.7473168,63.6661607 73.2301804,63.6661607 L71.4714573,63.6661607 C71.2577076,63.6661607 70.9419097,63.3606562 70.9419097,63.1515793 L70.942829,52.9590815 Z" id="Shape"></path>
                    <path d="M80.4006778,64.6732444 L83.7710275,64.6732444 L83.7710275,63.6679631 L82.9459078,63.6679631 C82.7330775,63.6679631 82.4062473,63.3737235 82.4062473,63.1650972 L82.4062473,52.6558299 C82.4062473,52.530564 82.5069165,52.4327845 82.6351663,52.4327845 C83.6174955,52.4697334 84.0408578,52.7824475 84.0408578,54.09819 L84.0408578,55.3256154 L86,55.3256154 L86,51.4234478 L74.8027345,51.4234478 L74.8027345,55.3256154 L76.7623364,55.3256154 L76.7623364,54.09819 C76.7623364,52.7824475 77.185239,52.4697334 78.1666488,52.4327845 C78.2948987,52.4327845 78.3964872,52.530564 78.3964872,52.6558299 L78.3964872,63.1637454 C78.3964872,63.3732729 78.0696571,63.6670619 77.8568267,63.6670619 L77.031707,63.6670619 L77.031707,64.6723432 L80.4006778,64.6732444 Z M5.79928162,58.2486364 C5.96430557,58.2486364 6.1909262,58.4113018 6.28470025,58.5811767 L6.29803087,58.5933429 L9.02897032,64.6723432 L13.7103181,64.6723432 L13.7103181,63.6670619 L13.3816493,63.6670619 C13.1003271,63.6670619 12.9587467,63.3201025 12.7882066,63.0317206 L9.94832378,58.1256235 C11.6817647,58.1256235 12.5510134,56.7873512 12.5716989,55.0052412 C12.5510134,53.2055579 11.7323292,51.4225466 9.59391302,51.4225466 L6.53338536,51.4225466 L6.53338536,52.4291797 L6.90112674,52.4291797 C8.7844223,52.4291797 8.81200291,57.2316396 6.90112674,57.2316396 L5.37821774,57.2316396 L5.37821774,55.4040193 L1.36799795,55.4040193 L1.36799795,63.2038485 C1.36799795,63.4124748 1.05174036,63.6661607 0.838910032,63.6661607 L0.0142499786,63.6661607 L0.0142499786,64.671442 L6.73886086,64.671442 L6.73886086,63.6661607 L5.90822501,63.6661607 C5.69539468,63.6661607 5.37867741,63.3940003 5.37867741,63.185374 L5.3828145,58.2481858 L5.84341059,58.2481858 L5.79928162,58.2481858 L5.79928162,58.2486364 L5.79928162,58.2486364 Z M43.275806,34.3670102 L39.1575622,41.3607219 C39.0233366,41.5860202 38.6785791,41.394066 38.766837,41.1606569 L42.195106,33.4450893 L35.3666082,21.8521368 L26.0094287,21.8543898 C26.0213803,21.9751497 26.1050415,22.134661 26.1234285,22.1788194 L38.1338621,42.5719258 C38.2069507,42.6791679 38.3485312,42.8269636 38.5333212,42.828766 L47.4367998,42.828766 C47.6174527,42.8269636 47.7608719,42.7107096 47.8086783,42.6350094 L59.8329022,22.2054047 C59.871515,22.1454753 59.9533375,21.964786 60.0544663,21.7228156 L50.7290045,21.7228156 L43.0055161,34.8239152 L43.275806,34.3670102 L43.275806,34.3670102 Z" id="Shape"></path>
                    <path d="M49.3862888,21.7732824 L59.9579342,21.7732824 C60.1198513,21.7741838 60.2536834,21.6497535 60.2613209,21.4912088 C60.2741918,21.2307639 60.2135145,20.9419314 60.0829663,20.7139295 L48.0481698,0.304601625 C47.9125652,0.0838092318 47.6744527,-0.0103654829 47.4220901,0.000899435106 L38.5912405,0.000899435106 C38.3439344,-0.00540891899 38.0754832,0.0973271334 37.9302253,0.302348641 L37.9159754,0.323977284 L25.9436949,20.7148307 C25.7993565,20.9676155 25.7115582,21.3046618 25.6922518,21.5925931 C25.6812252,21.7564603 25.8077858,21.8980711 25.974953,21.908912 L25.9947191,21.9093626 L36.6440499,21.9093626 L42.7439601,32.2136084 C42.7983875,32.3052762 42.8984997,32.3614064 43.0067003,32.3614064 C43.1149009,32.3614064 43.2148113,32.3045614 43.2689109,32.2127072 L49.3656034,21.8129349 C49.3737624,21.8003885 49.3806886,21.7871115 49.3862888,21.7732824 L49.3862888,21.7732824 Z M48.8218058,21.5470828 L43.0050564,31.4692226 L37.1538314,21.5844824 L43.0059758,11.6492753 L48.8218058,21.5470828 L48.8218058,21.5470828 Z M36.6123322,21.3141243 L26.3518879,21.3141243 C26.3831459,21.2019258 26.4194604,21.1095534 26.4737022,21.0054656 L38.4303536,0.640296182 L38.4970068,0.603797848 C38.522289,0.592983526 38.5563051,0.59523651 38.5815873,0.59523651 C38.6247969,0.596137704 47.4556465,0.59523651 47.4744933,0.593434123 C47.4952991,0.590218452 47.5162458,0.598328082 47.5291948,0.614612169 L59.5524994,21.0059162 C59.582838,21.0635926 59.6044428,21.1149606 59.6214509,21.1775935 L49.304926,21.1775935 L43.2689109,10.9053401 C43.2146631,10.8133346 43.1145169,10.7566304 43.0061083,10.7565375 C42.8976997,10.7564446 42.7974525,10.8129771 42.7430407,10.9048895 L36.6123322,21.3141243 Z" id="Shape"></path>
                    <path d="M35.2778906,21.3519745 L36.9033075,21.3519745 L43.0059758,11.054037 L49.0024587,21.2695153 L50.6490208,21.2704165 L43.7943214,9.63375614 L47.2625823,1.90782476 C47.354058,1.70009967 46.9849376,1.53202709 46.8631232,1.7370486 L35.2778906,21.3519745 Z M37.9104592,42.6760137 C38.0465236,42.910324 38.2671684,43.0513608 38.5402164,43.0806495 L38.5567647,43.0824519 L47.4864449,43.0824519 C47.7245574,43.0743412 47.9732425,42.9526801 48.1042504,42.7535163 L60.1509985,22.2847097 C60.1997242,22.17927 60.2273048,21.8219468 60.2424741,21.6493683 L59.6384589,21.5975497 L59.6062815,21.9526199 L59.5929509,22.0422886 L47.5963076,42.4263831 C47.565791,42.4632184 47.5205669,42.4853838 47.4721949,42.4872137 L38.5930792,42.4872137 C38.5301035,42.4822571 38.4671278,42.4313397 38.4372488,42.3804222 L26.435549,22.0017349 C26.4013181,21.9277137 26.3725901,21.8513639 26.3495895,21.7732824 C26.3364514,21.6677582 26.2668803,21.5771205 26.1670831,21.5355117 C26.0672859,21.4939028 25.9524241,21.5076441 25.865765,21.5715594 C25.7791059,21.6354747 25.7338152,21.7398537 25.7469533,21.8453779 C25.7552275,21.9107144 25.7731549,21.9877664 25.7970581,22.0490476 L25.8894531,22.265334 L37.9104592,42.6760137 L37.9104592,42.6760137 Z" id="Shape"></path>
                </g>
            </g>
        </g>
    </g>
</svg>