<svg id="Layer_1" data-name="Layer 1" xmlns="http://www.w3.org/2000/svg" width="289.43" height="101.52" viewBox="0 0 289.43 101.52">
  <path d="M260.55,17c-13.81-4.23-14-9.45-13.68-11l-5,18L269,27.32C270.32,21.2,264.23,18.13,260.55,17Z" transform="translate(0 0)"/>
  <path d="M42.57,6c.29,1.52.72,5.37-13.53,11.07-3.63,1.45-10.21,4.73-8.56,10.44l1.3,4.26H49.72Z" transform="translate(0 0)"/>
  <path d="M33.61,6.94c7.83-.44,8.45,4.73,11,10.71C49.4,28.84,60.86,61.25,64,70.31L51.57,20.65S49.55,14,47.34,6C43.18-8.86,0,8.49,0,8.49L23.38,85.88q3.45-1.36,6.77-2.52L9.36,12.82S23.86,7.46,33.61,6.94Z" transform="translate(0 0)"/>
  <path d="M64.89,72.7,64,70.31l.62,2.45Z" transform="translate(0 0)" style="fill: #3c3c3c"/>
  <path d="M244.36,18.51c2-6.39,3.85-12,11.48-11.57,9.75.53,24.24,5.88,24.24,5.88l-20.36,70.8s4.1,1.42,6.63,2.35L289.43,8.49S246.26-8.86,242.1,6c-2.2,7.93-4.23,14.61-4.23,14.61L224.28,74.79a186.81,186.81,0,0,1,18.91,4l-18-5.29S240.05,32.06,244.36,18.51Z" transform="translate(0 0)"/>
  <path d="M268.87,28.31,248.94,96.38s-1.57,9.08-22.5,2.57c-14.1-4.37-37.77-13.5-81.68-13.5S76.59,95.27,62.15,99.57c-19.26,5.75-21.69-3.08-21.69-3.08L20.45,27C34.33,24.92,35.7,23.31,44,20.73,55.66,17.09,90.86,4.36,145.28,4.36s86.31,12.43,100,16.73c9.46,3,12.51,4.6,23.73,6Z" transform="translate(0 0)"/>
  <path d="M267.48,29.66c-1.91,1.58-6.32,3-17.09-.56-17.2-5.67-52.79-18.59-105.66-18.59s-89,13.14-105,18.24c-13.84,4.41-18.29,2.56-19.39-1.64l-.52,5.41L36.17,89l2.88,2.75C43,97,52.26,95.81,56.13,94.76c16.76-4.63,45.2-15.33,88.6-15.33S213.88,88.68,233,94c5.23,1.45,14.22,2.92,17.38-2.32l1.77-2.31,17-58.53L269,27.06A5,5,0,0,1,267.48,29.66Z" transform="translate(0 0)" style="fill: #fff"/>
  <path d="M22.48,34.46s2.93,4.5,18.31-.77c13.3-4.55,48.42-18.8,103.86-18.8S237.87,30.48,250,34.22c15.8,4.86,17.12-.31,17.12-.31L251.85,86.73s-3.64,6.56-17.4,2.74c-11.83-3.29-43.72-14.78-89.8-14.78-45.6,0-76.13,11.29-88.63,15,0,0-12.39,4.74-18.35-3Z" transform="translate(0 0)"/>
  <path d="M58.22,45.94c-.28-2.89.4-10,8.89-13.77a24.38,24.38,0,0,1,11.86-2c1.57.13,2.85.17,3.06,2.59s.16,6.68.16,6.68.12,2.49-1.84,2.91c0,0-1.12-4.88-5.44-6.45a7.9,7.9,0,0,0-7.86,1.52,6.69,6.69,0,0,0-1.88,6.83c1.11,3.43,6.72,3,7.36,3S83,46.13,87.78,50.06s5.08,10.58,3.78,14.11a17.28,17.28,0,0,1-10,10.29c-5.15,2.23-12.16,1.82-14.27,1.32a3.11,3.11,0,0,1-2.5-3.14c-.1-1-.07-7.54-.07-7.54a2.62,2.62,0,0,1,1.69-2.56s2.21,6.87,8.37,7.83,10.38-4,10.11-8.17c-.21-3.44-2.16-6.07-5.94-6.38a31.52,31.52,0,0,0-6-.11c-1.74.07-8.12.6-11.54-2.5C59.33,51.29,58.51,48.94,58.22,45.94Z" transform="translate(0 0)" style="fill: #fff"/>
  <path d="M88.52,31A185.42,185.42,0,0,0,111.34,28c2.1-.43,2.7-.25,3-.05s.92.82,1.31,2.49l1.23,5s.8,3-1.16,4c0,0-2.11-5.73-5.89-6.31-1.78-.28-5.15.13-8.68,1.1A52.18,52.18,0,0,0,102.53,44a.47.47,0,0,0,.54.36c1-.11,7-.39,10.26-2.67,0,0,.73-.72.94.16a9.28,9.28,0,0,1-.67,6c-.56,1.06-1.09,1.34-2.81,1.54s-5.47.57-6.58.86c0,0-.79.09-.76.49,0,0,.14,1.64.43,3.65a33.83,33.83,0,0,0,1.25,6.1c.39,1.08,1.2,1.63,2.81,1.51s8.44-1,10.8-4.28a12.65,12.65,0,0,0,2.17-5.56,2.8,2.8,0,0,1,2,2.8,39.2,39.2,0,0,1-.49,6.69c-.44,2.3-1.42,3.25-4,3.64s-10.11,1.54-17.23,2.82c-2.07.38-4.14.07-4.42-3.12s-.92-14.7-2.2-25.9c-.53-4.68-2.34-4.84-3.42-5.21S88.48,33.06,88.52,31Z" transform="translate(0 0)" style="fill: #fff"/>
  <path d="M121.72,27.35s3,.47,12-.52c9.52-1,12.2-.57,16.6,1.27,8.84,3.72,8.95,14.94,8,19.15-1.74,7.66-4.47,10-8.08,13s-8.5,3.71-11.44,4c-2.72.25-5.3.63-8.09.73s-4.09-.83-4-4.39,1-16.23,0-25.86c-.34-3.34-.83-3.62-2.62-4.19a2.91,2.91,0,0,1-2.34-3.18m12.38,5.43a186.8,186.8,0,0,0,.78,24.34c.41,2.63,2.16,2.53,2.16,2.53s4.24.62,8.85-3.35c5.43-4.67,6.16-16.5,1.26-21.86s-12.08-3.06-12.08-3.06C134.16,31.68,134.13,32,134.1,32.78Z" transform="translate(0 0)" style="fill: #fff"/>
  <path d="M159.94,26.93s-.24,1.87,2.48,3.19,2.54,4.2,2.32,6.41c-.51,5.21-.9,8.29-2.58,20.28-.63,4.55-.61,5.54-.29,6.73s1.28,1.57,2.84,1.8,6.79.34,10.15.86c0,0,.48-1.84-2.35-3.27A3.29,3.29,0,0,1,171,61.48c-.8-1.36-.89-3.93-.78-6,.15-2.94.5-9.21,2.13-21.42.45-3.33.46-3.95.27-4.57s-.43-1.54-2.29-1.83c-.53-.09-1.85-.13-3.23-.22S161.79,27.23,159.94,26.93Z" transform="translate(0 0)" style="fill: #fff"/>
  <path d="M175.6,38s2.77-5.85,3.54-7,1.61-2.72,6.05-2a117,117,0,0,1,12.55,2.89,18.47,18.47,0,0,0,6,.82,4.8,4.8,0,0,0,3.48-1.54,5.48,5.48,0,0,1-.85,4.21c-1.57,2.5-4.7,3.55-8.86,2.54L195,37.31s-1.49,3.92-3.72,23.57c-.31,2.84.08,4,1.63,4.94s2,2.05,1.92,3.33c0,0-7.68-1.32-10.15-1.66-2.25-.33-2.59-1.91-2.15-3.73-.76,3.16,4.08-18.79,5.54-27.89a24.21,24.21,0,0,0-4.56-.7,5.31,5.31,0,0,0-4.45,1.7C177.58,38.17,176.39,38.3,175.6,38Z" transform="translate(0 0)" style="fill: #fff"/>
  <path d="M204.44,55.53S211.64,45.7,219,36a2.21,2.21,0,0,1,4,.72c.48,2.15,2.48,14.85,3.44,22.34.43,3.38,1.76,11.31,2.71,13.33a7.7,7.7,0,0,0,2.2,2.51,3.11,3.11,0,0,1,1.27,2.95s-6.08-1.47-8.22-1.94c0,0-3.94-.22-4.28-5.11-.38-5.58-.61-7-.61-7l-8.27-2.19a5.54,5.54,0,0,0-5.06,2.07c-1.11,1.38-1.23,3.57,1.26,5.28,2,1.33,2,2.68,1.78,3.43,0,0-5.9-1.54-8.45-2.17,0,0-5.44-1.27-1.77-6.8s5.4-7.87,5.4-7.87m7.4-1.11c-.4.52-.89,1.44,0,1.91a15.55,15.55,0,0,0,6.2,1.46,1,1,0,0,0,1.11-1.21l-1.06-11.24S212.29,53.78,211.84,54.42Z" transform="translate(0 0)" style="fill: #fff"/>
</svg>
