<svg xmlns="http://www.w3.org/2000/svg" xmlns:xlink="http://www.w3.org/1999/xlink" width="124" height="62" viewBox="0 0 68 34"><defs><path id="a" d="M0.106 0.156L6.275 0.156 6.275 19.729 0.106 19.729z"/></defs><g fill="none" fill-rule="evenodd"><path fill="#000" d="M20.55 32.623a5.072 5.072 0 0 1-2.778.834l-2.586-.002c-1.695 0-3.068-.91-3.068-2.037l-.007-6.361c0-1.123 1.374-2.035 3.07-2.035l2.384-.009c1.696 0 3.071.912 3.071 2.037l-.008 2.9c0 1.123-1.357 2.034-3.053 2.034l-2.271-.006-.018.002a.097.097 0 0 0-.099.098l-.001.013v2.228a.1.1 0 0 0 .1.099l.018-.003 5.207.006h.016a.1.1 0 0 1 .099.1.093.093 0 0 1-.045.081l-.032.021zm-3.077-3.655a.101.101 0 0 0 .1-.1V24.13l.002-.006a.098.098 0 0 0-.098-.098l-.01.002h-2.181a.1.1 0 0 0-.099.098l-.001.004v4.723l.001.017c0 .053.045.097.099.097h2.187zm39.542-5.135a5.066 5.066 0 0 1 2.777-.836l2.586.004c1.695 0 3.068.911 3.068 2.036l.008 6.361c0 1.123-1.377 2.036-3.072 2.036l-2.385.009c-1.694 0-3.068-.912-3.068-2.035l.006-2.9c0-1.126 1.357-2.036 3.055-2.036l2.268.005h.02a.095.095 0 0 0 .097-.097l.003-.015V24.138c0-.056-.043-.1-.1-.1h-.02l-5.206-.001-.017-.003a.1.1 0 0 1-.099-.098c0-.034.02-.064.047-.083l.032-.02zm3.11 3.66a.097.097 0 0 0-.098.095V32.327l-.005.005c0 .053.045.097.097.097H62.31l.001-.002a.096.096 0 0 0 .098-.096l.004-.005v-4.725l-.002-.014a.097.097 0 0 0-.1-.097H60.13l-.005.002zM27.37 24.028h-2.576a.097.097 0 0 0-.099.097l-.004.005v9.301l-3.068.002-.008-8.374c0-1.124 1.375-2.05 3.07-2.05l2.681.006.004 1.013zm18.744 8.593a5.067 5.067 0 0 1-2.778.835l-2.584-.001c-1.698 0-3.072-.913-3.072-2.038l-.003-6.361c0-1.123 1.371-2.035 3.068-2.035l2.384-.01c1.697 0 3.072.91 3.072 2.038l-.01 2.898c0 1.125-1.356 2.037-3.052 2.037l-2.27-.01-.017.004c-.056 0-.1.043-.1.096V32.32c0 .053.042.096.098.096h.019l5.207.005.016.001c.055 0 .097.045.097.1a.104.104 0 0 1-.042.081l-.033.02zm-3.076-3.658a.098.098 0 0 0 .098-.097V24.13l.003-.005a.1.1 0 0 0-.096-.099l-.012.001h-2.177l-.002.002c-.056 0-.1.043-.1.097V28.87c0 .055.044.1.1.1l.017-.005h2.169zm7.3-3.605c.005-.043.026-.072.026-.072.093-.202 1.13-1.38 2.34-1.435h.008c.055 0 .1.043.1.096V33.447l3.072.003.002-8.373c0-1.126-1.372-2.053-3.069-2.053h-.007c-1.012 0-1.9.392-2.398.973l-.015.019c-.046.05-.058-.01-.058-.01l.001-.017v-.98l-3.075.003.005 10.431h3.07v-7.981l-.001-.103zm16.523-1.457h.125c.13 0 .252-.043.252-.154 0-.095-.064-.165-.235-.165a.762.762 0 0 0-.142.011v.308zm0 .555h-.184v-.986c.1-.018.207-.03.346-.03.166 0 .247.03.308.076a.265.265 0 0 1 .102.213c0 .118-.092.196-.195.23v.013c.086.035.132.11.163.242.032.148.053.206.078.242h-.19c-.03-.036-.054-.124-.085-.254-.023-.111-.089-.16-.225-.16h-.118v.414zm.167-1.293a.76.76 0 0 0-.756.773c0 .437.328.78.766.78.423.006.742-.343.742-.774 0-.43-.32-.779-.747-.779h-.005zm.01-.167c.535 0 .952.414.952.94 0 .537-.417.95-.957.95a.948.948 0 0 1-.968-.95c0-.526.427-.94.968-.94h.005zm-33.657 9.43H31.194l-.004-.002a.098.098 0 0 1-.098-.098V24.11c0-.054.045-.099.098-.099l.02.002H33.376a.1.1 0 0 1 .1.099v8.211l.004.004a.1.1 0 0 1-.1.1zm3.154-7.396c0-1.125-1.36-2.036-3.054-2.036l-2.272.007-.019-.001a.099.099 0 0 1-.098-.098v-5.484H28.02l-.005 13.976c0 1.126 1.375 2.037 3.07 2.037l2.385.008c1.696 0 3.07-.912 3.07-2.035l-.005-6.374zm-24.811-7.612H8.13l-.007.633c-.164 10.449-4.47 14.062-4.539 14.1-.088.046-.142.037-.142.037-.05 0-.09-.044-.09-.097V19.668H.003L0 33.306v.038c0 .053.042.096.09.095l.038-.003h2.838l1.3.015c2.96 0 7.458-5.492 7.458-16.032"/><path fill="#000" d="M34.008 2.701c.53-.053.682.383.713.455.014.035.06.173.08.371-.042-.106-.158-.33-.44-.304-.41.04-.484.654-.484.654-.027.203-.016.36.019.53.088.44.266.541.31.564.083.042.133.009.164.005-.139.133-.315.15-.485.094 0 0-.321-.05-.514-.657 0 0-.231-.661.006-1.197.149-.335.392-.49.631-.515"/><g transform="translate(32.99 .178)"><mask id="b" fill="#fff"><use xlink:href="#a"/></mask><path fill="#000" d="M.117 19.73s-.2-2.676 1.169-6.185c1.015-2.607.785-3.876.735-4.563-.031-.447-.005-1.048.206-1.384.31-.495.272-.61-.007-1.207-.389-.828-.282-1.465.22-2.224.453-.682 1.94-2.336 3.835-4.01 0 0-2.591 3.048-3.085 3.86-.507.833-.653 1.29-.427 1.995.269.843.458.957.079 1.735-.304.626-.082 1.443-.06 2.01.028.677-.043 1.874-1.003 4.104C.742 16.27.194 19.023.117 19.729" mask="url(#b)"/></g><path fill="#000" d="M30.985 9.79c-.098-.173.043-.26.288-.21.305.065.933.418.933.418-.774-.72-1.354-.7-1.692-.626-.389.087-1.072.572-1.351 1.61 0 0 .779-1.308 1.312-1.359.474-.045.159 1.744-1.848 2.151 0 0-.136-2.404 2.052-2.62.852-.084 1.74.252 2.084 1.235 0 0-1.28.268-1.778-.6m-.75-1.477c.088.153-.044.241-.263.203-.26-.046-.75-.318-.75-.318.602.6 1.132.571 1.462.49.4-.097 1.101-.647 1.359-1.692 0 0-.767 1.372-1.322 1.448-.455.063-.248-1.584 1.986-2.233 0 0 .396 2.418-2.187 2.695-.79.085-1.49-.204-1.682-.985 0 0 .984-.322 1.398.392m1.84-2.944a.803.803 0 0 0-.06-.012c-.79-.134-2.974.29-3.475 1.754-.864 2.52-.525 6.076.518 6.605a.026.026 0 0 0 .006.002c.98.484 4.116-2.143 5.013-4.85.666-2.01-1.45-3.373-2.001-3.499"/></g></svg>